<ttFont>
          <CharString index="0">
            -95 callgsubr
            53 vhcurveto
            return
          </CharString>
          <CharString index="1">
            26 -102 callgsubr
            return
          </CharString>
          <CharString index="2">
            53 26 -83 callgsubr
            return
          </CharString>
          <CharString index="3">
            -53 -26 -84 callsubr
            return
          </CharString>
          <CharString index="4">
            26 5 -5 -26 hvcurveto
            return
          </CharString>
          <CharString index="5">
            -5 -5 -26 vhcurveto
            return
          </CharString>
          <CharString index="6">
            63 hlineto
            14 11 3 6 7 hvcurveto
            -87 -101 callgsubr
          </CharString>
          <CharString index="7">
            -107 callsubr
            -101 callsubr
          </CharString>
          <CharString index="8">
            5 26 hvcurveto
            return
          </CharString>
          <CharString index="9">
            vlineto
            -96 callsubr
            return
          </CharString>
          <CharString index="10">
            -88 callgsubr
            -112 -66 callsubr
            101 -106 callgsubr
            return
          </CharString>
          <CharString index="11">
            53 -26 26 -53 vhcurveto
            return
          </CharString>
          <CharString index="12">
            hlineto
            -103 callsubr
            return
          </CharString>
          <CharString index="13">
            hlineto
            14 11 3 6 7 hvcurveto
            return
          </CharString>
          <CharString index="14">
            158 -91 callgsubr
          </CharString>
          <CharString index="15">
            -30 callsubr
            227 21 callsubr
            return
          </CharString>
          <CharString index="16">
            -85 callgsubr
            82 callsubr
            197 vlineto
            53 -26 26 -53 vhcurveto
            return
          </CharString>
          <CharString index="17">
            -69 -367 hlineto
            -107 callsubr
            86 -104 callgsubr
            132 -69 -121 -89 callgsubr
            return
          </CharString>
          <CharString index="18">
            -82 callgsubr
            -135 -103 callgsubr
            return
          </CharString>
          <CharString index="19">
            5 26 vhcurveto
            return
          </CharString>
          <CharString index="20">
            -76 callsubr
            -26 -53 hvcurveto
            return
          </CharString>
          <CharString index="21">
            171 -94 callgsubr
            return
          </CharString>
          <CharString index="22">
            -29 14 -16 23 -2 vhcurveto
            -2 vlineto
            -23 -2 -14 -15 -29 vvcurveto
            return
          </CharString>
          <CharString index="23">
            -26 -53 hvcurveto
            return
          </CharString>
          <CharString index="24">
            vlineto
            -85 callsubr
            return
          </CharString>
          <CharString index="25">
            rmoveto
            73 callsubr
            return
          </CharString>
          <CharString index="26">
            -154 148 callsubr
            59 -20 -103 callgsubr
            132 -106 callgsubr
            20 -95 callsubr
            -305 -99 callgsubr
            -203 16 callgsubr
            37 59 -37 124 callgsubr
            34 8 -2 53 -2 vhcurveto
            -11 1 rlineto
            return
          </CharString>
          <CharString index="27">
            -103 callgsubr
            302 -106 callgsubr
            return
          </CharString>
          <CharString index="28">
            10 12 2 20 28 vvcurveto
            133 vlineto
            13 -3 8 -5 5 vhcurveto
            return
          </CharString>
          <CharString index="29">
            79 callgsubr
            75 -69 -86 -98 callgsubr
            85 -104 callgsubr
            136 -98 callsubr
            -52 -103 callgsubr
            70 -106 callgsubr
            return
          </CharString>
          <CharString index="30">
            -82 callsubr
            144 -106 callgsubr
            78 hlineto
            return
          </CharString>
          <CharString index="31">
            -75 callsubr
            -55 hlineto
            -53 -26 return
          </CharString>
          <CharString index="32">
            -106 callgsubr
            34 59 return
          </CharString>
          <CharString index="33">
            235 -137 307 callgsubr
            -190 -44 callsubr
            406 return
          </CharString>
          <CharString index="34">
            -65 callsubr
            -61 callsubr
            return
          </CharString>
          <CharString index="35">
            32 -70 callgsubr
            142 -55 callsubr
            return
          </CharString>
          <CharString index="36">
            rmoveto
            -89 callsubr
            return
          </CharString>
          <CharString index="37">
            -275 -143 2 hlineto
            23 2 14 16 29 vvcurveto
            147 -98 callsubr
            -83 -88 callgsubr
            -96 69 85 -106 callgsubr
            41 -95 callsubr
            -121 vlineto
            -82 callgsubr
            -68 -59 68 hlineto
            26 8 -8 -26 hvcurveto
            -116 -5 callgsubr
            132 106 -289 68 563 return
          </CharString>
          <CharString index="38">
            171 -71 callsubr
            return
          </CharString>
          <CharString index="39">
            -34 -103 callgsubr
            return
          </CharString>
          <CharString index="40">
            73 callgsubr
            -328 -31 callgsubr
            return
          </CharString>
          <CharString index="41">
            -75 -59 75 -563 69 7 callsubr
            59 -75 return
          </CharString>
          <CharString index="42">
            36 callgsubr
            -53 -26 -26 -53 hvcurveto
            return
          </CharString>
          <CharString index="43">
            -80 callgsubr
            -62 -73 callgsubr
            62 hlineto
            26 5 -5 -26 hvcurveto
            -113 90 rmoveto
            -104 callsubr
            -327 -49 callgsubr
            327 -98 callsubr
            return
          </CharString>
          <CharString index="44">
            vlineto
            -92 callgsubr
          </CharString>
          <CharString index="45">
            -84 callgsubr
            -206 69 206 -106 callgsubr
            return
          </CharString>
          <CharString index="46">
            -327 -98 callgsubr
            return
          </CharString>
          <CharString index="47">
            rmoveto
            -107 callgsubr
            return
          </CharString>
          <CharString index="48">
            -14 -11 -3 -6 -7 hvcurveto
            return
          </CharString>
          <CharString index="49">
            -563 -53 callgsubr
            return
          </CharString>
          <CharString index="50">
            rmoveto
            225 callsubr
            105 vlineto
            return
          </CharString>
          <CharString index="51">
            -60 callsubr
            305 78 callgsubr
            24 10 -9 -27 hvcurveto
            -295 202 callsubr
            return
          </CharString>
          <CharString index="52">
            vlineto
            13 -3 9 -5 5 vhcurveto
            return
          </CharString>
          <CharString index="53">
            485 rmoveto
            -50 -1 -25 -26 -52 vvcurveto
            -81 callsubr
            144 hlineto
            return
          </CharString>
          <CharString index="54">
            -34 callsubr
            317 return
          </CharString>
          <CharString index="55">
            76 -104 callgsubr
            return
          </CharString>
          <CharString index="56">
            -106 callgsubr
            68 59 -7 callsubr
            return
          </CharString>
          <CharString index="57">
            115 -69 -104 vlineto
            -26 -5 -5 -26 vhcurveto
            -34 -73 callgsubr
            return
          </CharString>
          <CharString index="58">
            -74 callgsubr
            -131 106 callgsubr
            return
          </CharString>
          <CharString index="59">
            -28 callsubr
            -52 callgsubr
            return
          </CharString>
          <CharString index="60">
            -88 callgsubr
            -327 18 callgsubr
            302 vlineto
            26 5 5 26 vhcurveto
            return
          </CharString>
          <CharString index="61">
            21 callgsubr
            88 -426 69 -29 callsubr
          </CharString>
          <CharString index="62">
            62 callgsubr
            -29 callsubr
          </CharString>
          <CharString index="63">
            -98 callgsubr
            91 -104 callgsubr
            return
          </CharString>
          <CharString index="64">
            hlineto
            -59 callsubr
            87 vlineto
            endchar
          </CharString>
          <CharString index="65">
            vlineto
            -20 callsubr
            return
          </CharString>
          <CharString index="66">
            hlineto
            -64 callgsubr
            -80 return
          </CharString>
          <CharString index="67">
            rmoveto
            -390 vlineto
            -27 -10 -9 -24 135 callgsubr
            -69 -406 -8 callsubr
            -33 69 485 vlineto
            return
          </CharString>
          <CharString index="68">
            -105 callsubr
            212 vlineto
            13 -3 8 -5 5 vhcurveto
            return
          </CharString>
          <CharString index="69">
            -70 callgsubr
            176 -63 callgsubr
            -154 -99 callgsubr
            return
          </CharString>
          <CharString index="70">
            51 357 58 -357 rlineto
            35 -217 rmoveto
            69 hlineto
            -107 622 rlineto
            -109 hlineto
            -97 -622 rlineto
            69 hlineto
            23 158 rlineto
            126 hlineto
            endchar
          </CharString>
          <CharString index="71">
            67 -98 callsubr
            return
          </CharString>
          <CharString index="72">
            344 -36 callgsubr
            return
          </CharString>
          <CharString index="73">
            -105 callgsubr
            -68 callsubr
            return
          </CharString>
          <CharString index="74">
            -69 callsubr
            198 32 -70 callgsubr
            91 -21 callgsubr
            -429 -395 44 callgsubr
            return
          </CharString>
          <CharString index="75">
            -94 callsubr
            -87 69 return
          </CharString>
          <CharString index="76">
            vlineto
            -10 callgsubr
          </CharString>
          <CharString index="77">
            rmoveto
            168 callsubr
            return
          </CharString>
          <CharString index="78">
            1 callsubr
            endchar
          </CharString>
          <CharString index="79">
            178 callsubr
            49 -8 callgsubr
            return
          </CharString>
          <CharString index="80">
            -107 callsubr
            -37 callgsubr
          </CharString>
          <CharString index="81">
            44 2 -4 -28 hvcurveto
            return
          </CharString>
          <CharString index="82">
            92 callsubr
            endchar
          </CharString>
          <CharString index="83">
            -105 callgsubr
            -62 -103 callgsubr
            532 -68 -543 -49 callgsubr
            543 return
          </CharString>
          <CharString index="84">
            288 callsubr
            395 96 vlineto
            return
          </CharString>
          <CharString index="85">
            22 callgsubr
            25 callgsubr
            26 5 5 26 vhcurveto
            endchar
          </CharString>
          <CharString index="86">
            -98 callgsubr
            -22 callsubr
          </CharString>
          <CharString index="87">
            -104 callsubr
            29 callgsubr
            return
          </CharString>
          <CharString index="88">
            26 vhcurveto
            34 59 return
          </CharString>
          <CharString index="89">
            171 6 callgsubr
            return
          </CharString>
          <CharString index="90">
            -105 callsubr
            197 -98 callsubr
            return
          </CharString>
          <CharString index="91">
            142 hlineto
            -74 callgsubr
            -131 return
          </CharString>
          <CharString index="92">
            -54 callsubr
            203 hmoveto
            59 return
          </CharString>
          <CharString index="93">
            -107 callgsubr
            125 -39 callgsubr
            -95 -195 hlineto
            -107 callsubr
            return
          </CharString>
          <CharString index="94">
            -58 6 -23 -48 callsubr
            return
          </CharString>
          <CharString index="95">
            rmoveto
            -82 callgsubr
            -40 -103 callgsubr
            365 105 vlineto
            return
          </CharString>
          <CharString index="96">
            -98 callgsubr
            102 hlineto
            return
          </CharString>
          <CharString index="97">
            hlineto
            -72 callgsubr
            return
          </CharString>
          <CharString index="98">
            168 -92 callsubr
            301 196 rmoveto
            return
          </CharString>
          <CharString index="99">
            -98 callgsubr
            40 hlineto
            27 20 9 24 8 hvcurveto
            return
          </CharString>
          <CharString index="100">
            -68 -103 callgsubr
            return
          </CharString>
          <CharString index="101">
            rmoveto
            22 3 5 25 vhcurveto
            32 hlineto
            25 3 -5 -22 hvcurveto
            -5 vlineto
            -22 -3 -5 -25 vhcurveto
            -32 hlineto
            -25 -3 5 22 hvcurveto
            74 -71 rmoveto
            44 21 20 45 hvcurveto
            17 vlineto
            45 -21 20 -44 vhcurveto
            -60 hlineto
            -44 -21 -20 -45 hvcurveto
            -17 vlineto
            -45 21 -20 44 vhcurveto
            return
          </CharString>
          <CharString index="102">
            100 callgsubr
            -40 -103 callgsubr
            227 -75 callsubr
            return
          </CharString>
          <CharString index="103">
            rmoveto
            85 127 rlineto
            -76 hlineto
            -53 -84 -52 84 rlineto
            -76 hlineto
            85 -127 rlineto
            return
          </CharString>
          <CharString index="104">
            -98 callgsubr
            184 59 -163 -24 callgsubr
            return
          </CharString>
          <CharString index="105">
            -103 callsubr
            -211 57 callgsubr
            181 249 callgsubr
            198 62 -177 -103 callgsubr
            138 279 callsubr
            25 callgsubr
            13 -3 8 -5 5 vhcurveto
            return
          </CharString>
          <CharString index="106">
            -103 callgsubr
            153 56 vlineto
            -39 callsubr
            return
          </CharString>
          <CharString index="107">
            rmoveto
            117 39 callsubr
            -117 vlineto
            return
          </CharString>
          <CharString index="108">
            7 callsubr
            vlineto
            return
          </CharString>
          <CharString index="109">
            -104 callsubr
            -465 111 callgsubr
            105 -69 -94 -1 callgsubr
            -94 return
          </CharString>
          <CharString index="110">
            rmoveto
            73 86 -73 hlineto
            return
          </CharString>
          <CharString index="111">
            rmoveto
            -50 -1 -25 -26 -52 vvcurveto
            -81 callsubr
            144 hlineto
            203 hmoveto
            59 -541 -59 83 229 callgsubr
            -181 -98 callgsubr
            240 -104 callgsubr
            327 vlineto
            50 -23 26 -48 3 vhcurveto
            78 vlineto
            endchar
          </CharString>
          <CharString index="112">
            19 callsubr
            -408 -59 173 -78 -19 vlineto
            -104 callsubr
            -327 vlineto
            return
          </CharString>
          <CharString index="113">
            -1 callsubr
            220 return
          </CharString>
          <CharString index="114">
            563 75 return
          </CharString>
          <CharString index="115">
            148 -197 hlineto
            -83 8 -58 178 callsubr
            53 -32 68 vhcurveto
            23 callsubr
            return
          </CharString>
          <CharString index="116">
            432 48 callgsubr
            -395 49 callgsubr
            return
          </CharString>
          <CharString index="117">
            -50 callgsubr
            -52 callgsubr
            -75 callgsubr
            return
          </CharString>
          <CharString index="118">
            -26 -8 -8 -26 vhcurveto
            -126 hlineto
            -14 callsubr
            return
          </CharString>
          <CharString index="119">
            hlineto
            234 callgsubr
            175 198 callgsubr
            126 -63 callgsubr
            35 callgsubr
            -175 hlineto
            -65 callsubr
            -244 140 callgsubr
            62 -61 -103 callgsubr
            219 90 callsubr
            -123 69 264 callsubr
            63 -186 hlineto
            -107 callsubr
            return
          </CharString>
          <CharString index="120">
            -78 callsubr
            endchar
          </CharString>
          <CharString index="121">
            34 callsubr
            98 vlineto
            -17 callsubr
            return
          </CharString>
          <CharString index="122">
            18 callgsubr
            302 218 callsubr
            return
          </CharString>
          <CharString index="123">
            vlineto
            40 callgsubr
            return
          </CharString>
          <CharString index="124">
            -59 235 -78 -101 233 callsubr
            81 41 callgsubr
            -78 53 -69 -190 69 78 306 callsubr
            88 -98 callsubr
            -81 hlineto
            146 callsubr
            return
          </CharString>
          <CharString index="125">
            -96 callsubr
            -107 -59 86 -66 callgsubr
            -29 hlineto
            -26 -5 5 26 hvcurveto
            88 -69 -99 -98 callgsubr
            71 -104 callgsubr
            return
          </CharString>
          <CharString index="126">
            -80 callgsubr
            -65 -73 callgsubr
            65 -95 callsubr
            137 168 rmoveto
            59 return
          </CharString>
          <CharString index="127">
            59 -204 -59 71 47 callsubr
            return
          </CharString>
          <CharString index="128">
            -106 callgsubr
            60 hlineto
            return
          </CharString>
          <CharString index="129">
            -52 242 374 -80 callgsubr
            -62 16 callgsubr
            62 hlineto
            26 5 -5 -26 hvcurveto
            -442 vmoveto
            -105 callgsubr
            -62 -103 callgsubr
            162 16 callsubr
            68 291 249 callsubr
            260 callgsubr
            -183 vlineto
            -29 14 -17 23 -2 vhcurveto
            -23 -4 -14 -14 -29 vvcurveto
            -186 -49 callgsubr
            186 vlineto
            29 -14 14 -23 4 vhcurveto
            23 2 14 17 29 vvcurveto
            endchar
          </CharString>
          <CharString index="130">
            -69 3 callgsubr
            return
          </CharString>
          <CharString index="131">
            -59 211 hlineto
            -100 callgsubr
            281 -206 -98 callgsubr
            return
          </CharString>
          <CharString index="132">
            -23 -2 -14 -15 -29 vvcurveto
            -158 -3 callsubr
            return
          </CharString>
          <CharString index="133">
            113 -373 69 -29 callsubr
          </CharString>
          <CharString index="134">
            10 12 2 20 28 vvcurveto
            140 vlineto
            48 -23 30 -56 vhcurveto
            -63 hlineto
            -56 -23 -30 -48 hvcurveto
            -182 vlineto
            -47 22 -30 54 -1 vhcurveto
            -139 -136 rlineto
            85 hlineto
            141 136 rlineto
            return
          </CharString>
          <CharString index="135">
            -406 hlineto
            56 callsubr
            return
          </CharString>
          <CharString index="136">
            -5 -5 -3 -8 -13 vvcurveto
            return
          </CharString>
          <CharString index="137">
            -24 -8 -9 -26 vhcurveto
            -60 hlineto
            -26 -5 5 26 hvcurveto
            227 vlineto
            28 callgsubr
            74 hlineto
            return
          </CharString>
          <CharString index="138">
            -106 callgsubr
            78 hlineto
            -288 -205 -77 callgsubr
            538 485 67 callgsubr
            -51 vlineto
            -13 callsubr
            return
          </CharString>
          <CharString index="139">
            -327 15 callsubr
            53 callsubr
            return
          </CharString>
          <CharString index="140">
            -124 -83 callsubr
            -110 202 callgsubr
            99 217 callgsubr
            396 -69 -48 vlineto
            -21 -102 callsubr
            -74 -103 callgsubr
            99 -106 callgsubr
            endchar
          </CharString>
          <CharString index="141">
            -107 callsubr
            86 -104 callgsubr
            115 -69 -104 -89 callgsubr
            178 return
          </CharString>
          <CharString index="142">
            rmoveto
            53 -84 rlineto
            76 hlineto
            -85 127 rlineto
            -87 hlineto
            -85 -127 rlineto
            76 hlineto
            return
          </CharString>
          <CharString index="143">
            rmoveto
            -82 hlineto
            -78 -127 rlineto
            62 hlineto
            return
          </CharString>
          <CharString index="144">
            vlineto
            20 callgsubr
          </CharString>
          <CharString index="145">
            -104 callsubr
            -465 111 callgsubr
            235 -119 -59 50 -165 -1 callgsubr
            -84 return
          </CharString>
          <CharString index="146">
            -106 callgsubr
            50 -95 callsubr
            return
          </CharString>
          <CharString index="147">
            -99 callgsubr
            -77 return
          </CharString>
          <CharString index="148">
            60 callgsubr
            75 -69 -86 vlineto
            return
          </CharString>
          <CharString index="149">
            29 callsubr
            132 callsubr
            return
          </CharString>
          <CharString index="150">
            -287 hlineto
            51 callgsubr
            return
          </CharString>
          <CharString index="151">
            -98 callgsubr
            110 59 -89 90 callgsubr
            return
          </CharString>
          <CharString index="152">
            rmoveto
            137 135 59 -463 128 callsubr
            77 hlineto
            -71 -148 rlineto
            66 hlineto
            70 148 rlineto
            18 -2 4 -6 -23 vvcurveto
            -51 65 305 callsubr
            -150 -103 callgsubr
            49 -106 callgsubr
            endchar
          </CharString>
          <CharString index="153">
            -80 callgsubr
            -39 230 callsubr
            143 vlineto
            123 callsubr
            return
          </CharString>
          <CharString index="154">
            hlineto
            42 callsubr
            return
          </CharString>
          <CharString index="155">
            rmoveto
            93 -95 callsubr
            -182 -99 callgsubr
            -93 hlineto
            150 -319 rmoveto
            74 hlineto
            -94 261 rlineto
            42 5 20 26 47 vvcurveto
            204 -98 callsubr
            -181 -622 68 260 59 hlineto
            endchar
          </CharString>
          <CharString index="156">
            vlineto
            -19 callgsubr
            return
          </CharString>
          <CharString index="157">
            -46 callgsubr
            -247 72 callsubr
            return
          </CharString>
          <CharString index="158">
            64 callsubr
            105 -185 -98 callgsubr
            return
          </CharString>
          <CharString index="159">
            rmoveto
            130 callsubr
            82 -95 callsubr
            -16 90 rmoveto
            -97 -103 callgsubr
            94 vlineto
            138 callsubr
            return
          </CharString>
          <CharString index="160">
            -347 hlineto
            68 callsubr
            return
          </CharString>
          <CharString index="161">
            -317 vlineto
            -67 callsubr
            return
          </CharString>
          <CharString index="162">
            -32 callsubr
            266 -69 -95 vlineto
            -82 callgsubr
            return
          </CharString>
          <CharString index="163">
            -107 callsubr
            102 hlineto
            21 17 7 15 12 hvcurveto
            -15 260 callsubr
            return
          </CharString>
          <CharString index="164">
            -107 callgsubr
            197 -87 callsubr
            return
          </CharString>
          <CharString index="165">
            rmoveto
            -40 -99 callgsubr
            -66 182 callgsubr
            -66 -48 -49 callgsubr
            48 vlineto
            endchar
          </CharString>
          <CharString index="166">
            rmoveto
            75 callsubr
            259 callgsubr
            46 vlineto
            endchar
          </CharString>
          <CharString index="167">
            -31 -103 callgsubr
            return
          </CharString>
          <CharString index="168">
            hlineto
            -107 callsubr
            63 -91 callgsubr
          </CharString>
          <CharString index="169">
            -554 66 callgsubr
          </CharString>
          <CharString index="170">
            -88 callgsubr
            -173 -98 callgsubr
            68 -95 callsubr
            return
          </CharString>
          <CharString index="171">
            -74 callgsubr
            -131 -283 162 66 59 -368 -59 233 -162 106 callgsubr
            237 callgsubr
            -165 -78 callgsubr
            185 return
          </CharString>
          <CharString index="172">
            120 408 97 callgsubr
            135 callsubr
            -572 302 callgsubr
            -98 -88 callgsubr
            -45 callgsubr
            109 return
          </CharString>
          <CharString index="173">
            -65 140 318 -60 callsubr
            183 -106 callgsubr
            57 -95 callsubr
            -214 vlineto
            -109 304 rmoveto
            -104 callsubr
            -205 -98 callgsubr
            109 -169 hlineto
            298 callgsubr
            106 -68 296 callgsubr
            98 -104 callgsubr
            160 callgsubr
            endchar
          </CharString>
          <CharString index="174">
            -395 -47 callgsubr
            return
          </CharString>
          <CharString index="175">
            -107 callsubr
            86 -104 callgsubr
            132 -69 -121 -89 callgsubr
            195 return
          </CharString>
          <CharString index="176">
            -78 55 callgsubr
            return
          </CharString>
          <CharString index="177">
            -60 238 90 rmoveto
            298 callgsubr
            204 88 178 callgsubr
            -119 90 rmoveto
            179 -106 callgsubr
            57 -95 callsubr
            -106 68 117 -98 callsubr
            -98 120 callsubr
            306 callsubr
            195 -60 callgsubr
          </CharString>
          <CharString index="178">
            153 callsubr
            77 0 callgsubr
            return
          </CharString>
          <CharString index="179">
            -108 124 callsubr
            105 -108 vlineto
            return
          </CharString>
          <CharString index="180">
            190 callgsubr
            -103 callgsubr
            return
          </CharString>
          <CharString index="181">
            -265 140 callgsubr
            62 -61 -103 callgsubr
            240 90 callsubr
            -174 69 294 callsubr
            return
          </CharString>
          <CharString index="182">
            -40 -99 callgsubr
            -68 182 callgsubr
            -64 -46 -98 callgsubr
            return
          </CharString>
          <CharString index="183">
            -60 callsubr
            157 -106 callgsubr
            80 -188 hlineto
            -105 callgsubr
            return
          </CharString>
          <CharString index="184">
            -26 -6 4 26 hvcurveto
            20 vlineto
            26 6 4 26 vhcurveto
            60 return
          </CharString>
          <CharString index="185">
            26 hlineto
            56 22 30 46 hvcurveto
            60 -64 -46 vlineto
            -23 -3 -12 -24 vhcurveto
            -79 -13 82 -81 hhcurveto
            -29 hlineto
            -55 -22 -29 -47 hvcurveto
            -60 64 47 vlineto
            21 5 13 25 vhcurveto
            70 7 -82 95 hhcurveto
            return
          </CharString>
          <CharString index="186">
            -8 hlineto
            97 callsubr
            return
          </CharString>
          <CharString index="187">
            -206 -58 callgsubr
            5 callgsubr
          </CharString>
          <CharString index="188">
            vlineto
            2 callgsubr
          </CharString>
          <CharString index="189">
            98 -70 callgsubr
            return
          </CharString>
          <CharString index="190">
            rmoveto
            24 3 8 26 vhcurveto
            26 hlineto
            26 3 -8 -24 hvcurveto
            -155 vlineto
            -24 -3 -33 callgsubr
            -26 hlineto
            -26 -3 8 24 hvcurveto
            return
          </CharString>
          <CharString index="191">
            -166 vlineto
            284 callsubr
            26 callsubr
          </CharString>
          <CharString index="192">
            -107 callsubr
            63 -32 callsubr
            392 -34 callgsubr
            72 hlineto
            -50 callgsubr
            -61 callsubr
            return
          </CharString>
          <CharString index="193">
            -412 -218 791 rmoveto
            -46 -98 callgsubr
            100 hlineto
            163 callgsubr
            vlineto
            return
          </CharString>
          <CharString index="194">
            hlineto
            73 callgsubr
            -160 vlineto
            -12 callgsubr
            113 0 callgsubr
            -52 callsubr
            return
          </CharString>
          <CharString index="195">
            117 callgsubr
            -40 -103 callgsubr
            return
          </CharString>
          <CharString index="196">
            -106 callgsubr
            55 -95 callsubr
            return
          </CharString>
          <CharString index="197">
            149 callgsubr
            -95 callsubr
            return
          </CharString>
          <CharString index="198">
            -103 callgsubr
            85 -69 return
          </CharString>
          <CharString index="199">
            vlineto
            -29 14 -16 23 -2 vhcurveto
            -2 vlineto
            25 callsubr
            return
          </CharString>
          <CharString index="200">
            -82 callgsubr
            -41 -103 callgsubr
            227 -106 callgsubr
            return
          </CharString>
          <CharString index="201">
            165 callgsubr
            -115 -78 callgsubr
            135 113 -103 vlineto
            -262 -289 rlineto
            85 hlineto
            177 return
          </CharString>
          <CharString index="202">
            -122 93 532 201 callsubr
            36 -95 callsubr
            -40 vlineto
            -48 -5 -33 -18 -42 vhcurveto
            -142 -311 rlineto
            -58 239 59 -168 vlineto
            137 299 rlineto
            20 47 6 34 49 vvcurveto
            55 -98 callsubr
            -77 -88 callgsubr
            -121 68 vlineto
            endchar
          </CharString>
          <CharString index="203">
            168 -47 callgsubr
            return
          </CharString>
          <CharString index="204">
            -104 callsubr
            -29 169 callsubr
            54 return
          </CharString>
          <CharString index="205">
            16 -27 callgsubr
            return
          </CharString>
          <CharString index="206">
            92 258 callsubr
            return
          </CharString>
          <CharString index="207">
            rmoveto
            -426 -59 282 221 callgsubr
            -204 275 callsubr
            -243 243 callgsubr
          </CharString>
          <CharString index="208">
            -13 callsubr
            102 hlineto
            25 return
          </CharString>
          <CharString index="209">
            rmoveto
            -59 callsubr
            return
          </CharString>
          <CharString index="210">
            -43 -103 callgsubr
            return
          </CharString>
          <CharString index="211">
            -57 callsubr
            208 hmoveto
            59 -450 207 callsubr
            105 59 -107 209 callgsubr
          </CharString>
          <CharString index="212">
            45 vvcurveto
            136 -98 callsubr
            -52 -103 callgsubr
            70 -106 callgsubr
            return
          </CharString>
          <CharString index="213">
            rmoveto
            65 vlineto
            53 -26 26 -53 vhcurveto
            -92 hlineto
            134 callsubr
            vlineto
            endchar
          </CharString>
          <CharString index="214">
            -51 311 543 249 callsubr
            -103 120 callsubr
            103 -104 callgsubr
            -69 11 -80 callgsubr
            -61 -103 callgsubr
            442 274 callsubr
          </CharString>
          <CharString index="215">
            69 callgsubr
            -69 return
          </CharString>
          <CharString index="216">
            -83 callsubr
            -138 -98 callgsubr
            return
          </CharString>
          <CharString index="217">
            -106 callgsubr
            46 -95 callsubr
            return
          </CharString>
          <CharString index="218">
            -26 47 vhcurveto
            -76 140 rlineto
            76 59 return
          </CharString>
          <CharString index="219">
            4 callgsubr
            -23 2 15 -14 29 hhcurveto
            99 226 callsubr
            return
          </CharString>
          <CharString index="220">
            -59 75 -236 hlineto
            -85 callsubr
            -153 vlineto
            return
          </CharString>
          <CharString index="221">
            -59 174 hlineto
            -26 callsubr
            -115 -99 callgsubr
            -85 -59 85 -95 callsubr
            -205 -89 callgsubr
            116 -69 -127 -98 callgsubr
            86 -104 callgsubr
            return
          </CharString>
          <CharString index="222">
            46 callsubr
            311 85 rmoveto
            -144 -259 -106 hlineto
            5 5 3 8 13 vvcurveto
            159 -98 callsubr
            -82 -88 callgsubr
            return
          </CharString>
          <CharString index="223">
            -42 callgsubr
            99 callsubr
            return
          </CharString>
          <CharString index="224">
            rmoveto
            -78 127 rlineto
            -82 hlineto
            98 -127 rlineto
            return
          </CharString>
          <CharString index="225">
            -96 -98 callgsubr
            return
          </CharString>
          <CharString index="226">
            vlineto
            125 callsubr
          </CharString>
          <CharString index="227">
            hlineto
            132 callgsubr
            return
          </CharString>
          <CharString index="228">
            -59 553 -131 -419 -88 callgsubr
            -196 -98 callgsubr
            71 -104 callgsubr
            216 99 callsubr
            -196 -78 callgsubr
            216 113 return
          </CharString>
          <CharString index="229">
            26 5 4 -19 callsubr
            -45 hlineto
            -53 -26 -25 -53 -23 4 -43 8 -27 hvcurveto
            -2 hlineto
            -10 28 -14 29 -23 33 -43 61 rcurveline
            return
          </CharString>
          <CharString index="230">
            26 5 5 99 callgsubr
            return
          </CharString>
          <CharString index="231">
            102 callsubr
            117 return
          </CharString>
          <CharString index="232">
            72 callgsubr
            1 callsubr
            endchar
          </CharString>
          <CharString index="233">
            -74 -83 callsubr
            return
          </CharString>
          <CharString index="234">
            rlineto
            -11 -4 -9 -4 -18 hhcurveto
            return
          </CharString>
          <CharString index="235">
            296 callsubr
            vlineto
            245 callgsubr
            -158 -98 callgsubr
            184 59 -163 293 callsubr
            -106 callgsubr
            return
          </CharString>
          <CharString index="236">
            303 callgsubr
            224 80 59 -80 221 107 -95 callsubr
            -207 90 rmoveto
            -280 -50 -59 50 -283 150 callsubr
          </CharString>
          <CharString index="237">
            -105 callgsubr
            -82 98 callgsubr
            return
          </CharString>
          <CharString index="238">
            31 callgsubr
            -419 -59 419 hlineto
            -285 -78 rmoveto
            -69 -328 hlineto
            -29 callgsubr
            269 120 59 -189 -317 235 callsubr
            endchar
          </CharString>
          <CharString index="239">
            -243 -98 callgsubr
            return
          </CharString>
          <CharString index="240">
            -103 callgsubr
            395 return
          </CharString>
          <CharString index="241">
            -104 callsubr
            -61 callsubr
            92 -104 callgsubr
            65 -69 -54 -99 callgsubr
            -50 -73 callgsubr
            50 hlineto
            26 5 -5 -26 hvcurveto
            -54 return
          </CharString>
          <CharString index="242">
            144 59 rmoveto
            return
          </CharString>
          <CharString index="243">
            223 96 callsubr
            return
          </CharString>
          <CharString index="244">
            vlineto
            29 -14 15 -23 2 vhcurveto
            2 vlineto
            23 2 14 16 29 vvcurveto
            return
          </CharString>
          <CharString index="245">
            44 -9 64 0 vhcurveto
            0 20 -46 26 -42 vhcurveto
            return
          </CharString>
          <CharString index="246">
            -98 callgsubr
            52 return
          </CharString>
          <CharString index="247">
            hmoveto
            8 callsubr
            return
          </CharString>
          <CharString index="248">
            -59 76 259 callsubr
            -141 -83 callsubr
            -144 -98 callgsubr
            119 236 callsubr
            return
          </CharString>
          <CharString index="249">
            rmoveto
            -160 27 vlineto
            53 121 rlineto
            39 vlineto
            endchar
          </CharString>
          <CharString index="250">
            426 rmoveto
            137 return
          </CharString>
          <CharString index="251">
            -12 callgsubr
            99 -87 callgsubr
            vlineto
            endchar
          </CharString>
          <CharString index="252">
            -214 65 622 301 callsubr
            622 vlineto
            return
          </CharString>
          <CharString index="253">
            -107 callgsubr
            40 -106 callgsubr
            return
          </CharString>
          <CharString index="254">
            215 callgsubr
            197 -75 callsubr
            return
          </CharString>
          <CharString index="255">
            -98 callgsubr
            36 return
          </CharString>
          <CharString index="256">
            -412 -346 813 rmoveto
            140 -132 rlineto
            55 -52 27 -17 0 vvcurveto
            66 hlineto
            -47 201 233 callgsubr
            return
          </CharString>
          <CharString index="257">
            197 -70 callgsubr
            160 callgsubr
            endchar
          </CharString>
          <CharString index="258">
            171 rmoveto
            -82 callgsubr
            -110 206 callgsubr
            4 27 1 vhcurveto
            143 hlineto
            return
          </CharString>
          <CharString index="259">
            hlineto
            -134 191 rlineto
            -83 hlineto
            68 -96 29 -41 26 -32 21 -22 rlinecurve
            return
          </CharString>
          <CharString index="260">
            297 callgsubr
            hlineto
            -107 callsubr
            return
          </CharString>
          <CharString index="261">
            -59 68 -406 hlineto
            85 callsubr
            return
          </CharString>
          <CharString index="262">
            -98 callgsubr
            71 hlineto
            32 20 20 18 5 hvcurveto
            -18 5 21 -20 29 hhcurveto
            80 164 callgsubr
            return
          </CharString>
          <CharString index="263">
            rmoveto
            -208 -622 rlineto
            68 hlineto
            208 622 rlineto
            87 -513 rmoveto
            -28 63 -52 -63 -53 hlineto
            86 237 rlineto
            -53 hlineto
            -89 -244 rlineto
            -34 109 -68 52 68 28 vlineto
            endchar
          </CharString>
          <CharString index="264">
            -41 callsubr
            -217 hlineto
            -107 callsubr
            return
          </CharString>
          <CharString index="265">
            vlineto
            -26 callsubr
            -75 -99 callgsubr
            return
          </CharString>
          <CharString index="266">
            187 callsubr
            131 return
          </CharString>
          <CharString index="267">
            -115 -98 callgsubr
            return
          </CharString>
          <CharString index="268">
            -99 -88 callgsubr
            return
          </CharString>
          <CharString index="269">
            -84 219 278 callgsubr
            -40 hlineto
            -24 -10 9 27 hvcurveto
            295 vlineto
            27 10 9 24 17 callgsubr
            -50 90 rmoveto
            201 callgsubr
            return
          </CharString>
          <CharString index="270">
            -88 callgsubr
            -194 147 callgsubr
            18 12 4 11 7 hvcurveto
            return
          </CharString>
          <CharString index="271">
            -563 68 563 return
          </CharString>
          <CharString index="272">
            rmoveto
            -144 -221 -113 -16 callsubr
            return
          </CharString>
          <CharString index="273">
            -98 callgsubr
            99 -91 callgsubr
          </CharString>
          <CharString index="274">
            -87 325 186 rmoveto
            -53 118 -66 -118 -131 hlineto
            161 436 rlineto
            -67 hlineto
            -164 -442 rlineto
            -53 201 -127 66 127 53 vlineto
            endchar
          </CharString>
          <CharString index="275">
            -26 -5 -5 217 callsubr
            return
          </CharString>
          <CharString index="276">
            -98 callgsubr
            92 return
          </CharString>
          <CharString index="277">
            -59 269 -78 -125 190 callsubr
            return
          </CharString>
          <CharString index="278">
            -58 -98 callgsubr
            76 59 -55 90 callgsubr
            53 hlineto
            25 12 -14 -21 13 hvcurveto
            75 -120 rlineto
            83 hlineto
            return
          </CharString>
          <CharString index="279">
            177 callgsubr
            -76 140 rlineto
            76 59 return
          </CharString>
          <CharString index="280">
            -41 callsubr
            -103 hlineto
            -58 6 -23 178 callsubr
            49 111 callsubr
            -91 hlineto
            return
          </CharString>
          <CharString index="281">
            -392 -94 callgsubr
            return
          </CharString>
          <CharString index="282">
            89 -104 callgsubr
            216 26 callsubr
          </CharString>
          <CharString index="283">
            -220 -237 rlineto
            82 hlineto
            138 153 rlineto
            -103 69 -29 callsubr
          </CharString>
          <CharString index="284">
            -27 callgsubr
            116 175 rlineto
            42 return
          </CharString>
          <CharString index="285">
            0 vhcurveto
            0 -20 return
          </CharString>
          <CharString index="286">
            196 634 -196 hlineto
            236 -185 rmoveto
            196 185 -196 hlineto
            return
          </CharString>
          <CharString index="287">
            -73 rmoveto
            -26 -9 -11 -26 vhcurveto
            -37 -58 48 hlineto
            54 35 28 61 hvcurveto
            28 -65 vlineto
            return
          </CharString>
          <CharString index="288">
            280 callsubr
            vlineto
            -104 callsubr
            return
          </CharString>
          <CharString index="289">
            vlineto
            7 0 7 -1 6 vhcurveto
            return
          </CharString>
          <CharString index="290">
            248 callsubr
            113 -103 13 callgsubr
          </CharString>
          <CharString index="291">
            -44 267 280 -80 callgsubr
            -81 -103 callgsubr
            115 -106 callgsubr
            81 -95 callsubr
            return
          </CharString>
          <CharString index="292">
            24 -8 -20 9 -27 hhcurveto
            -40 -88 callgsubr
            -328 -8 callsubr
            -33 69 669 return
          </CharString>
          <CharString index="293">
            -99 callgsubr
            -93 -103 callgsubr
            return
          </CharString>
          <CharString index="294">
            hlineto
            -43 -26 -17 -36 -7 hvcurveto
            -108 return
          </CharString>
          <CharString index="295">
            -238 -88 callgsubr
            return
          </CharString>
          <CharString index="296">
            -128 -98 callgsubr
            return
          </CharString>
          <CharString index="297">
            -47 callsubr
            104 return
          </CharString>
          <CharString index="298">
            813 rmoveto
            -55 hlineto
            -53 -26 -25 -53 hvcurveto
            -136 69 125 vlineto
            26 5 4 26 vhcurveto
            34 hlineto
            -35 -35 228 callgsubr
          </CharString>
          <CharString index="299">
            -59 75 164 callsubr
            75 hlineto
            endchar
          </CharString>
          <CharString index="300">
            hlineto
            199 callgsubr
            return
          </CharString>
          <CharString index="301">
            rmoveto
            199 callgsubr
            return
          </CharString>
          <CharString index="302">
            -317 hlineto
            -53 callsubr
            return
          </CharString>
          <CharString index="303">
            rmoveto
            299 callsubr
          </CharString>
          <CharString index="304">
            -55 -103 callgsubr
            return
          </CharString>
          <CharString index="305">
            rmoveto
            -236 -58 236 hlineto
            return
          </CharString>
          <CharString index="306">
            -77 callgsubr
            178 485 rmoveto
            return
          </CharString>
          <CharString index="307">
            -60 callsubr
            175 103 callgsubr
            18 -47 31 -62 vhcurveto
            102 -205 rlineto
            -10 -4 -10 -3 -17 hhcurveto
            return
          </CharString>
          <CharString index="308">
            rmoveto
            -106 callsubr
            return
          </CharString>
          <CharString index="309">
            vlineto
            173 callgsubr
            return
          </CharString>
          <CharString index="310">
            89 -106 callgsubr
            21 64 -42 -88 callgsubr
            -105 -48 -59 48 -426 69 426 105 -426 69 return
          </CharString>
          <CharString index="311">
            -158 212 callgsubr
          </CharString>
          <CharString index="312">
            16 -8 8 -13 2 vhcurveto
            13 1 8 9 16 vvcurveto
            99 vlineto
            29 -15 14 -29 vhcurveto
            -66 hlineto
            -29 -15 -14 -29 hvcurveto
            -62 48 return
          </CharString>
          <CharString index="313">
            214 callgsubr
            -203 hlineto
            -82 callgsubr
            447 485 rmoveto
            return
          </CharString>
          <CharString index="314">
            -59 68 -406 -98 callgsubr
            63 -32 callsubr
            362 -34 callgsubr
            return
          </CharString>
          <CharString index="315">
            rmoveto
            563 -68 -622 211 59 vlineto
            endchar
          </CharString>
          <CharString index="316">
            -347 hlineto
            -107 callsubr
            return
          </CharString>
          <CharString index="317">
            309 callsubr
            -421 -59 280 -78 -126 vlineto
            289 callsubr
            return
          </CharString>
          <CharString index="318">
            -59 68 -219 hlineto
            -85 callsubr
            -170 -98 callgsubr
            return
          </CharString>
          <CharString index="319">
            69 174 vlineto
            -24 8 20 -9 27 hhcurveto
            40 -104 callgsubr
            327 -60 callgsubr
          </CharString>
          <CharString index="320">
            -269 102 callgsubr
          </CharString>
          <CharString index="321">
            55 -104 callgsubr
            219 -98 callsubr
            return
          </CharString>
          <CharString index="322">
            -395 -82 callsubr
            return
          </CharString>
          <CharString index="323">
            rmoveto
            118 callgsubr
            return
          </CharString>
          <CharString index="324">
            -26 vhcurveto
            -29 -103 callgsubr
            return
          </CharString>
          <CharString index="325">
            -106 callgsubr
            104 return
          </CharString>
          <CharString index="326">
            26 5 4 27 1 vhcurveto
            return
          </CharString>
          <CharString index="327">
            79 146 rlineto
            13 25 3 25 27 vvcurveto
            31 vlineto
            29 -14 14 -29 vhcurveto
            -63 hlineto
            -29 -14 -14 -29 hvcurveto
            -67 47 return
          </CharString>
          <CharString index="328">
            hlineto
            284 callsubr
            26 callsubr
          </CharString>
          <CharString index="329">
            -106 callgsubr
            137 137 75 59 -387 302 callgsubr
            -89 -88 callgsubr
            return
          </CharString>
          <CharString index="330">
            rmoveto
            -465 vlineto
            -124 465 rlineto
            -80 -622 63 482 hlineto
            129 -482 rlineto
            75 622 hlineto
            return
          </CharString>
          <CharString index="331">
            -185 -63 callsubr
          </CharString>
          <CharString index="332">
            -26 -8 -8 -26 135 callgsubr
            return
          </CharString>
          <CharString index="333">
            -104 callgsubr
            265 callsubr
            return
          </CharString>
          <CharString index="334">
            rmoveto
            -76 hlineto
            100 -130 rlineto
            76 hlineto
            endchar
          </CharString>
          <CharString index="335">
            126 callgsubr
            -367 hlineto
            -107 callsubr
            return
          </CharString>
          <CharString index="336">
            -258 hlineto
            -65 callsubr
            return
          </CharString>
          <CharString index="337">
            hlineto
            -26 -6 -99 callsubr
            return
          </CharString>
          <CharString index="338">
            hmoveto
            240 callgsubr
            return
          </CharString>
          <CharString index="339">
            -49 308 307 callsubr
            -413 296 callsubr
            vlineto
            -104 callsubr
            return
          </CharString>
          <CharString index="340">
            vlineto
            -104 callsubr
            -62 -98 callgsubr
            return
          </CharString>
          <CharString index="341">
            hlineto
            -26 callsubr
            -97 -99 callgsubr
            return
          </CharString>
          <CharString index="342">
            vlineto
            -34 callsubr
            return
          </CharString>
          <CharString index="343">
            hlineto
            26 17 5 11 10 hvcurveto
            -11 13 19 -5 24 hhcurveto
            return
          </CharString>
          <CharString index="344">
            308 143 callsubr
            return
          </CharString>
          <CharString index="345">
            -99 vlineto
            -104 callsubr
            return
          </CharString>
          <CharString index="346">
            -104 callsubr
            -165 -98 callgsubr
            71 -104 callgsubr
            185 return
          </CharString>
          <CharString index="347">
            485 rmoveto
            55 callgsubr
            return
          </CharString>
          <CharString index="348">
            -104 callsubr
            -179 -44 callsubr
            336 return
          </CharString>
          <CharString index="349">
            704 rmoveto
            59 -55 vlineto
            -53 -26 -25 -53 hvcurveto
            -86 69 75 vlineto
            26 5 4 26 vhcurveto
            endchar
          </CharString>
          <CharString index="350">
            104 287 callgsubr
          </CharString>
          <CharString index="351">
            69 7 callsubr
            hlineto
            endchar
          </CharString>
          <CharString index="352">
            hlineto
            -26 -17 8 22 -13 hvcurveto
            -26 43 rlineto
            -82 hlineto
            37 -64 rlineto
            -61 35 25 -7 70 hhcurveto
            return
          </CharString>
          <CharString index="353">
            278 0 callsubr
            return
          </CharString>
          <CharString index="354">
            68 -96 36 -50 31 -38 22 -20 rlinecurve
            return
          </CharString>
          <CharString index="355">
            89 -104 callgsubr
            135 return
          </CharString>
          <CharString index="356">
            rmoveto
            -96 callsubr
            return
          </CharString>
          <CharString index="357">
            -23 -5 5 23 hvcurveto
            return
          </CharString>
          <CharString index="358">
            -36 callgsubr
            102 hlineto
            return
          </CharString>
          <CharString index="359">
            -11 callsubr
            25 15 5 14 9 94 callgsubr
            return
          </CharString>
          <CharString index="360">
            -74 hlineto
            -131 -314 129 -308 rlineto
            74 hlineto
            -132 308 rlineto
            endchar
          </CharString>
          <CharString index="361">
            -29 -21 -20 -18 -5 hvcurveto
            18 -5 -20 20 -32 hhcurveto
            -71 -88 callgsubr
            return
          </CharString>
          <CharString index="362">
            rmoveto
            167 75 59 -580 -59 436 -108 -89 vlineto
            -104 callsubr
            return
          </CharString>
          <CharString index="363">
            rmoveto
            137 76 59 -399 -59 254 -78 return
          </CharString>
          <CharString index="364">
            309 31 callgsubr
            -329 -59 329 hlineto
            return
          </CharString>
          <CharString index="365">
            vlineto
            -50 callgsubr
            return
          </CharString>
          <CharString index="366">
            hlineto
            29 callsubr
            return
          </CharString>
          <CharString index="367">
            13 20 -7 28 hhcurveto
            return
          </CharString>
          <CharString index="368">
            271 callsubr
            563 return
          </CharString>
          <CharString index="369">
            rmoveto
            -82 hlineto
            98 -127 rlineto
            62 hlineto
            endchar
          </CharString>
          <CharString index="370">
            -110 -103 callgsubr
            return
          </CharString>
          <CharString index="371">
            123 -106 callgsubr
            return
          </CharString>
          <CharString index="372">
            249 -98 callsubr
            return
          </CharString>
          <CharString index="373">
            -9 -5 -5 -10 -16 vvcurveto
            return
          </CharString>
          <CharString index="374">
            -189 rmoveto
            10 12 2 20 28 vvcurveto
            103 vlineto
            13 -3 8 -5 5 vhcurveto
            return
          </CharString>
          <CharString index="375">
            hlineto
            -79 callgsubr
            endchar
          </CharString>
          <CharString index="376">
            249 -27 vlineto
            -55 -191 rlineto
            -58 vlineto
            return
          </CharString>
          <CharString index="377">
            -622 68 563 return
          </CharString>
          <CharString index="378">
            288 callgsubr
            -203 68 return
          </CharString>
          <CharString index="379">
            -103 callgsubr
            195 82 callsubr
            return
          </CharString>
          <CharString index="380">
            293 callgsubr
            -40 -103 callgsubr
            return
          </CharString>
          <CharString index="381">
            vlineto
            64 callgsubr
            endchar
          </CharString>
          <CharString index="382">
            -59 71 259 callsubr
            return
          </CharString>
          <CharString index="383">
            -138 305 callgsubr
            return
          </CharString>
          <CharString index="384">
            -95 callsubr
            -24 return
          </CharString>
          <CharString index="385">
            426 309 callgsubr
            return
          </CharString>
          <CharString index="386">
            56 -70 callgsubr
            return
          </CharString>
          <CharString index="387">
            -59 233 -78 -79 return
          </CharString>
          <CharString index="388">
            -104 callsubr
            -61 callsubr
            17 return
          </CharString>
          <CharString index="389">
            -212 hlineto
            -89 6 -46 0 vhcurveto
            0 -18 40 -28 46 vhcurveto
            return
          </CharString>
          <CharString index="390">
            -98 callgsubr
            135 -104 callgsubr
            return
          </CharString>
          <CharString index="391">
            -107 callsubr
            89 -104 callgsubr
            186 return
          </CharString>
          <CharString index="392">
            -103 callgsubr
            142 -106 callgsubr
            return
          </CharString>
          <CharString index="393">
            -106 callsubr
            42 59 -59 -88 callgsubr
            return
          </CharString>
          <CharString index="394">
            -38 -18 -18 -38 hvcurveto
            -230 vlineto
            -38 18 -18 38 vhcurveto
            return
          </CharString>
          <CharString index="395">
            rmoveto
            -34 callsubr
            return
          </CharString>
          <CharString index="396">
            -104 callsubr
            -135 -98 callgsubr
            return
          </CharString>
          <CharString index="397">
            rmoveto
            -107 callsubr
            71 -104 callgsubr
            return
          </CharString>
          <CharString index="398">
            -104 callgsubr
            117 return
          </CharString>
          <CharString index="399">
            -297 -98 callgsubr
            return
          </CharString>
          <CharString index="400">
            -103 callgsubr
            135 return
          </CharString>
          <CharString index="401">
            174 -106 callgsubr
            return
          </CharString>
          <CharString index="402" raw="1">
            fb4e291d 0b  
          </CharString>
          <CharString index="403">
            -59 259 -78 -105 return
          </CharString>
          <CharString index="404">
            181 187 return
          </CharString>
          <CharString index="405">
            -130 164 -68 -164 -130 -59 130 return
          </CharString>
          <CharString index="406">
            118 callgsubr
            endchar
          </CharString>
          <CharString index="407">
            669 -69 -669 vlineto
            return
          </CharString>
          <CharString index="408">
            rmoveto
            -622 68 return
          </CharString>
          <CharString index="409">
            158 -32 callsubr
            return
          </CharString>
          <CharString index="410">
            vlineto
            -104 callsubr
            -55 216 rmoveto
            -59 return
          </CharString>
          <CharString index="411">
            225 31 callgsubr
            -245 -59 245 hlineto
            return
          </CharString>
          <CharString index="412">
            62 -98 callsubr
            return
          </CharString>
          <CharString index="413">
            99 -104 callgsubr
            return
          </CharString>
          <CharString index="414">
            143 callsubr
            85 59 return
          </CharString>
          <CharString index="415">
            105 -98 callsubr
            return
          </CharString>
          <CharString index="416">
            rmoveto
            137 72 59 return
          </CharString>
          <CharString index="417">
            194 653 rmoveto
            -64 -684 64 hlineto
            return
          </CharString>
          <CharString index="418">
            -106 callgsubr
            78 hlineto
            -338 return
          </CharString>
          <CharString index="419">
            143 59 rmoveto
            return
          </CharString>
        <CharString name=".notdef">
          338 180 hmoveto
          390 701 -390 hlineto
          54 -50 rmoveto
          282 -601 -282 hlineto
          endchar
        </CharString>
        <CharString name="A">
          -69 115 217 rmoveto
          -37 callsubr
        </CharString>
        <CharString name="AE">
          116 160 217 rmoveto
          104 292 rlineto
          -292 vlineto
          69 -158 290 callgsubr
          -257 vlineto
          -226 -622 rlineto
          69 hlineto
          56 158 rlineto
          125 -158 240 59 hlineto
          endchar
        </CharString>
        <CharString name="Aacute">
          -69 295 780 36 callsubr
          -82 -436 rmoveto
          -37 callsubr
        </CharString>
        <CharString name="Abreve">
          -69 217 653 rmoveto
          -105 callsubr
          48 -66 -40 -99 callgsubr
          -66 182 callgsubr
          -66 -48 -98 callgsubr
          -436 vmoveto
          -37 callsubr
        </CharString>
        <CharString name="Acircumflex">
          -69 166 737 35 callsubr
          1 -436 rmoveto
          -37 callsubr
        </CharString>
        <CharString name="Adieresis">
          -69 298 737 239 callgsubr
          -176 84 239 callgsubr
          -7 -436 rmoveto
          -37 callsubr
        </CharString>
        <CharString name="Agrave">
          -69 191 653 117 callsubr
          -14 -436 rmoveto
          -37 callsubr
        </CharString>
        <CharString name="Amacron">
          -69 284 711 198 callsubr
          -169 -436 rmoveto
          -37 callsubr
        </CharString>
        <CharString name="Aogonek">
          -69 115 217 rmoveto
          51 357 58 -357 rlineto
          43 -375 rmoveto
          285 callgsubr
          1 hlineto
          -1 6 rlineto
          4 -1 vlineto
          -105 612 rlineto
          -109 hlineto
          -97 -622 rlineto
          69 hlineto
          23 158 rlineto
          126 hlineto
          26 -158 rlineto
          2 -25 79 callsubr
          hlineto
          endchar
        </CharString>
        <CharString name="Aring">
          -69 122 729 -6 callsubr
          -21 -436 rmoveto
          -37 callsubr
        </CharString>
        <CharString name="Atilde">
          -69 103 664 rmoveto
          153 callgsubr
          10 callgsubr
          vlineto
          12 -436 rmoveto
          -37 callsubr
        </CharString>
        <CharString name="B">
          -31 55 31 callgsubr
          -622 197 -70 callgsubr
          190 vlineto
          29 -14 13 -23 4 vhcurveto
          23 2 14 18 29 vvcurveto
          179 -98 callsubr
          10 -532 -80 callgsubr
          -107 229 107 -95 callsubr
          121 vmoveto
          -105 callgsubr
          -107 216 107 -95 callsubr
          endchar
        </CharString>
        <CharString name="C">
          -67 305 438 rmoveto
          308 callsubr
          -97 hlineto
          2 callsubr
          vlineto
          endchar
        </CharString>
        <CharString name="CR">
          -282 endchar
        </CharString>
        <CharString name="Cacute">
          -67 306 780 36 callsubr
          -79 -31 rmoveto
          2 callsubr
          69 105 -60 callgsubr
        </CharString>
        <CharString name="Ccaron">
          -67 222 653 -4 callsubr
          -6 -31 rmoveto
          2 callsubr
          69 105 -60 callgsubr
        </CharString>
        <CharString name="Ccedilla">
          -67 149 180 callsubr
          156 489 rmoveto
          308 callsubr
          -97 hlineto
          2 callsubr
          vlineto
          endchar
        </CharString>
        <CharString name="D">
          303 callgsubr
          504 107 -95 callsubr
          -207 90 rmoveto
          -622 150 callsubr
        </CharString>
        <CharString name="Dcaron">
          -31 231 653 -4 callsubr
          118 -563 -80 callgsubr
          -107 504 107 -95 callsubr
          -207 90 rmoveto
          -622 150 callsubr
        </CharString>
        <CharString name="Dcroat">
          129 callsubr
        </CharString>
        <CharString name="E">
          -97 124 59 rmoveto
          235 45 callgsubr
          vlineto
          endchar
        </CharString>
        <CharString name="Eacute">
          -97 296 780 36 callsubr
          -74 -359 rmoveto
          45 callgsubr
          -171 hlineto
          endchar
        </CharString>
        <CharString name="Ecaron">
          -97 213 653 -4 callsubr
          -2 -359 rmoveto
          45 callgsubr
          -171 hlineto
          endchar
        </CharString>
        <CharString name="Ecircumflex">
          -97 172 737 35 callsubr
          4 -359 rmoveto
          45 callgsubr
          -171 hlineto
          endchar
        </CharString>
        <CharString name="Edieresis">
          -97 125 737 239 callgsubr
          -1 -359 rmoveto
          45 callgsubr
          -171 hlineto
          89 678 244 callgsubr
        </CharString>
        <CharString name="Edotaccent">
          -97 226 739 rmoveto
          -92 -86 92 hlineto
          -102 -594 rmoveto
          235 45 callgsubr
          vlineto
          endchar
        </CharString>
        <CharString name="Egrave">
          -97 202 653 117 callsubr
          -16 -594 rmoveto
          235 45 callgsubr
          vlineto
          endchar
        </CharString>
        <CharString name="Emacron">
          -97 289 728 198 callsubr
          -165 -611 rmoveto
          235 45 callgsubr
          vlineto
          endchar
        </CharString>
        <CharString name="Eogonek">
          -97 235 -158 rmoveto
          77 callsubr
          137 -171 299 callgsubr
          -233 -622 174 -25 79 callsubr
          hlineto
          endchar
        </CharString>
        <CharString name="Eth">
          129 callsubr
        </CharString>
        <CharString name="Euro">
          -44 328 438 rmoveto
          308 callsubr
          -97 -88 callgsubr
          -145 -48 -58 48 -57 -48 -59 48 -146 111 callgsubr
          105 -69 -94 -99 callgsubr
          -55 293 callsubr
          95 59 -95 57 95 58 -95 134 89 callsubr
          -94 vlineto
          endchar
        </CharString>
        <CharString name="F">
          -109 298 281 callgsubr
          -243 -622 69 284 134 59 -134 220 vlineto
          endchar
        </CharString>
        <CharString name="G">
          -62 305 448 rmoveto
          95 -98 callsubr
          -97 hlineto
          38 callsubr
          vlineto
          endchar
        </CharString>
        <CharString name="Gbreve">
          -62 129 31 callgsubr
          38 callsubr
          69 95 -98 callsubr
          16 158 58 callsubr
        </CharString>
        <CharString name="H">
          -30 258 31 callgsubr
          -282 -134 282 -69 -622 69 281 134 -281 69 622 vlineto
          endchar
        </CharString>
        <CharString name="I">
          145 callsubr
          endchar
        </CharString>
        <CharString name="Iacute">
          145 callsubr
          -61 31 rmoveto
          171 callgsubr
          endchar
        </CharString>
        <CharString name="Icircumflex">
          145 callsubr
          -161 31 192 callgsubr
        </CharString>
        <CharString name="Idieresis">
          -214 -35 653 187 callgsubr
          -76 -115 301 callsubr
          622 vlineto
          endchar
        </CharString>
        <CharString name="Idotaccent">
          145 callsubr
          -81 47 rmoveto
          92 86 -92 hlineto
          endchar
        </CharString>
        <CharString name="Igrave">
          145 callsubr
          -81 158 262 callsubr
        </CharString>
        <CharString name="Imacron">
          145 callsubr
          -153 48 258 callgsubr
        </CharString>
        <CharString name="Iogonek">
          -214 73 -158 rmoveto
          77 callsubr
          700 -68 -622 2 -25 79 callsubr
          hlineto
          endchar
        </CharString>
        <CharString name="J">
          -111 15 192 rmoveto
          -113 -58 callgsubr
          543 -69 -532 235 callsubr
          102 vlineto
          endchar
        </CharString>
        <CharString name="K">
          -67 55 hmoveto
          68 622 -68 hlineto
          280 hmoveto
          253 callsubr
        </CharString>
        <CharString name="L">
          -141 123 59 208 callsubr
        </CharString>
        <CharString name="Lacute">
          -141 217 780 36 callsubr
          4 -594 208 callsubr
        </CharString>
        <CharString name="Lcaron">
          -141 221 582 rmoveto
          39 -62 -160 27 vlineto
          -63 -402 208 callsubr
        </CharString>
        <CharString name="Lslash">
          -136 123 59 rmoveto
          229 vlineto
          97 45 rlineto
          59 vlineto
          -97 -45 rlineto
          275 -68 -306 vlineto
          -73 -34 rlineto
          -59 vlineto
          73 34 rlineto
          -257 211 59 vlineto
          endchar
        </CharString>
        <CharString name="M">
          63 274 135 rmoveto
          87 336 rlineto
          -471 59 622 -75 vlineto
          -108 -400 -107 400 rlineto
          -75 -622 59 471 hlineto
          87 -336 rlineto
          endchar
        </CharString>
        <CharString name="N">
          123 callgsubr
          endchar
        </CharString>
        <CharString name="NULL">
          -412 endchar
        </CharString>
        <CharString name="Nacute">
          -35 161 653 rmoveto
          171 callgsubr
          20 204 callsubr
        </CharString>
        <CharString name="Ncaron">
          -35 149 653 rmoveto
          87 hlineto
          85 127 rlineto
          -76 hlineto
          -53 -84 -52 84 rlineto
          -76 hlineto
          195 204 callsubr
        </CharString>
        <CharString name="Ntilde">
          123 callgsubr
          -85 31 rmoveto
          10 callgsubr
          11 vlineto
          153 callgsubr
          endchar
        </CharString>
        <CharString name="O">
          -52 242 90 -53 callgsubr
          endchar
        </CharString>
        <CharString name="OE">
          105 242 278 callgsubr
          -62 -103 callgsubr
          442 16 callsubr
          79 -473 290 callgsubr
          -223 -19 vlineto
          13 -12 -19 6 -26 hhcurveto
          -76 120 callsubr
          77 hlineto
          26 18 6 13 12 hvcurveto
          -19 230 59 vlineto
          endchar
        </CharString>
        <CharString name="Oacute">
          -52 300 780 36 callsubr
          40 -58 callsubr
          endchar
        </CharString>
        <CharString name="Ocircumflex">
          -52 179 737 35 callsubr
          115 -58 callsubr
          endchar
        </CharString>
        <CharString name="Odieresis">
          -52 136 737 239 callgsubr
          106 -58 callsubr
          -7 115 244 callgsubr
        </CharString>
        <CharString name="Ograve">
          -52 200 653 117 callsubr
          104 -58 callsubr
          endchar
        </CharString>
        <CharString name="Ohungarumlaut">
          -52 256 653 109 callgsubr
          86 -58 callsubr
          endchar
        </CharString>
        <CharString name="Omacron">
          -52 298 711 198 callsubr
          -56 -58 callsubr
          endchar
        </CharString>
        <CharString name="Oslash">
          -42 248 87 rmoveto
          -26 -5 -5 -27 vhcurveto
          -63 hlineto
          -12 -8 1 4 -4 hvcurveto
          119 372 rlineto
          -126 102 201 callsubr
          63 hlineto
          13 7 -1 -4 5 hvcurveto
          -119 -372 rlineto
          193 453 rmoveto
          -48 hlineto
          -7 -22 rlineto
          1 -7 -8 1 -9 hhcurveto
          260 callgsubr
          -464 vlineto
          -23 5 -18 10 -13 vhcurveto
          -15 -45 rlineto
          48 hlineto
          7 22 rlineto
          -1 7 8 -1 9 hhcurveto
          102 -104 callgsubr
          464 vlineto
          23 -5 18 -10 13 vhcurveto
          endchar
        </CharString>
        <CharString name="Otilde">
          -52 116 664 rmoveto
          153 callgsubr
          10 callgsubr
          vlineto
          126 -58 callsubr
          endchar
        </CharString>
        <CharString name="P">
          -67 247 340 -80 callgsubr
          -93 254 93 -95 callsubr
          -192 90 301 callsubr
          250 113 -70 callgsubr
          214 -60 callgsubr
        </CharString>
        <CharString name="Q">
          -52 118 532 rmoveto
          40 callgsubr
          -442 -99 callgsubr
          -62 -103 callgsubr
          195 -187 rmoveto
          -65 98 rlineto
          42 5 20 26 47 vvcurveto
          160 callgsubr
          -102 120 callsubr
          53 hlineto
          63 -97 rlineto
          endchar
        </CharString>
        <CharString name="R">
          -48 123 563 48 callsubr
        </CharString>
        <CharString name="Racute">
          -48 307 780 36 callsubr
          -86 -90 48 callsubr
        </CharString>
        <CharString name="Rcaron">
          -48 224 653 -4 callsubr
          -14 -90 48 callsubr
        </CharString>
        <CharString name="S">
          -85 218 90 65 callgsubr
        </CharString>
        <CharString name="Sacute">
          -85 128 653 rmoveto
          171 callgsubr
          12 61 callgsubr
        </CharString>
        <CharString name="Scaron">
          -85 121 653 rmoveto
          87 hlineto
          85 127 rlineto
          -76 hlineto
          -53 -84 -52 84 rlineto
          -76 hlineto
          182 61 callgsubr
        </CharString>
        <CharString name="T">
          -134 273 622 184 callgsubr
        </CharString>
        <CharString name="Tcaron">
          -134 183 653 -4 callsubr
          177 -31 184 callgsubr
        </CharString>
        <CharString name="Thorn">
          -67 247 215 -80 callgsubr
          -93 254 93 -95 callsubr
          -124 90 rmoveto
          125 -68 -622 68 125 113 -70 callgsubr
          214 -60 callgsubr
        </CharString>
        <CharString name="U">
          -48 244 31 callgsubr
          -532 vlineto
          -24 callsubr
          vlineto
          endchar
        </CharString>
        <CharString name="Uacute">
          -48 310 780 36 callsubr
          32 -31 rmoveto
          -532 vlineto
          -24 callsubr
          vlineto
          endchar
        </CharString>
        <CharString name="Ucircumflex">
          -48 181 737 35 callsubr
          115 -31 rmoveto
          -532 vlineto
          -24 callsubr
          vlineto
          endchar
        </CharString>
        <CharString name="Udieresis">
          -48 138 737 239 callgsubr
          106 -563 rmoveto
          -24 callsubr
          -68 vlineto
          -18 115 244 callgsubr
        </CharString>
        <CharString name="Ugrave">
          -48 213 653 117 callsubr
          93 -31 rmoveto
          -532 vlineto
          -24 callsubr
          vlineto
          endchar
        </CharString>
        <CharString name="Uhungarumlaut">
          -48 256 653 109 callgsubr
          88 -563 rmoveto
          -24 callsubr
          -68 vlineto
          endchar
        </CharString>
        <CharString name="Umacron">
          -48 301 711 198 callsubr
          -57 -31 rmoveto
          -532 vlineto
          -24 callsubr
          vlineto
          endchar
        </CharString>
        <CharString name="Uogonek">
          -48 244 31 callgsubr
          -532 -99 callgsubr
          -62 -103 callgsubr
          532 -68 -543 -98 callgsubr
          25 -25 79 callsubr
          -78 hlineto
          285 callgsubr
          11 -104 callgsubr
          543 vlineto
          endchar
        </CharString>
        <CharString name="Uring">
          -48 137 729 -6 callsubr
          93 -31 rmoveto
          -532 vlineto
          -24 callsubr
          vlineto
          endchar
        </CharString>
        <CharString name="V">
          -93 245 31 callgsubr
          -86 -574 -85 574 rlineto
          -69 hlineto
          100 -622 rlineto
          109 hlineto
          100 622 rlineto
          endchar
        </CharString>
        <CharString name="W">
          137 470 31 callgsubr
          -76 -574 -79 574 rlineto
          -82 hlineto
          -79 -574 -75 574 rlineto
          -69 hlineto
          91 -622 rlineto
          104 hlineto
          69 493 70 -493 rlineto
          104 hlineto
          91 622 rlineto
          endchar
        </CharString>
        <CharString name="X">
          -78 203 318 rmoveto
          116 304 rlineto
          -74 hlineto
          -78 -242 -78 242 rlineto
          -74 hlineto
          116 -304 -126 -318 rlineto
          74 hlineto
          88 253 88 -253 rlineto
          74 hlineto
          endchar
        </CharString>
        <CharString name="Y">
          -93 245 622 208 callgsubr
        </CharString>
        <CharString name="Yacute">
          -93 291 780 36 callsubr
          52 204 callgsubr
        </CharString>
        <CharString name="Ydieresis">
          -93 295 737 239 callgsubr
          -176 84 239 callgsubr
          126 204 callgsubr
        </CharString>
        <CharString name="Z">
          -139 268 623 rmoveto
          -253 -59 131 callgsubr
          endchar
        </CharString>
        <CharString name="Zacute">
          -139 276 780 36 callsubr
          -163 -89 rmoveto
          131 callgsubr
          59 -253 vlineto
          endchar
        </CharString>
        <CharString name="Zcaron">
          -139 182 653 -4 callsubr
          173 -30 rmoveto
          -253 -59 131 callgsubr
          endchar
        </CharString>
        <CharString name="Zdotaccent">
          -139 190 739 rmoveto
          -92 -86 92 hlineto
          78 -30 rmoveto
          -253 -59 131 callgsubr
          endchar
        </CharString>
        <CharString name="a">
          -84 140 59 -59 callgsubr
          -33 69 485 vlineto
          endchar
        </CharString>
        <CharString name="aacute">
          -84 298 643 36 callsubr
          -60 -457 -56 callsubr
          34 393 rmoveto
          -55 callgsubr
          -33 69 485 -69 vlineto
          endchar
        </CharString>
        <CharString name="abreve">
          -84 140 59 -56 callsubr
          34 393 rmoveto
          -55 callgsubr
          -33 69 485 -69 vlineto
          12 158 58 callsubr
        </CharString>
        <CharString name="acircumflex">
          -84 166 600 35 callsubr
          26 -457 -56 callsubr
          34 393 rmoveto
          -55 callgsubr
          -33 69 485 -69 vlineto
          endchar
        </CharString>
        <CharString name="acute">
          -12 118 516 rmoveto
          171 callgsubr
          endchar
        </CharString>
        <CharString name="adieresis">
          -84 116 625 239 callgsubr
          24 -482 -56 callsubr
          34 393 rmoveto
          -55 callgsubr
          -33 69 485 -69 vlineto
          -10 140 244 callgsubr
        </CharString>
        <CharString name="ae">
          97 145 59 -60 callsubr
          76 vlineto
          105 42 rlineto
          -119 vlineto
          -23 -2 -10 -7 -22 hhcurveto
          184 367 rmoveto
          -103 callsubr
          -117 -112 117 -106 callgsubr
          -31 -207 rmoveto
          297 callsubr
          hlineto
          -96 callsubr
          -83 hlineto
          254 callsubr
          -94 69 83 78 callgsubr
          22 10 -8 -22 2 hvcurveto
          -125 vlineto
          -174 -71 rlineto
          -121 155 callsubr
          endchar
        </CharString>
        <CharString name="agrave">
          -84 221 516 117 callsubr
          -19 -457 -59 callgsubr
          -33 69 485 vlineto
          endchar
        </CharString>
        <CharString name="amacron">
          -84 278 608 198 callsubr
          -138 -491 -59 callgsubr
          -33 69 485 vlineto
          endchar
        </CharString>
        <CharString name="ampersand">
          6 139 59 -60 callsubr
          87 vlineto
          35 9 11 22 15 vhcurveto
          27 19 157 -196 rlineto
          -1 -5 -6 -1 -9 hhcurveto
          -175 473 201 callsubr
          52 -95 callsubr
          -88 vlineto
          -44 -18 -20 -39 -27 vhcurveto
          -9 -7 rlineto
          -23 27 -25 31 30 vvcurveto
          347 -469 rmoveto
          -85 108 rlineto
          6 vlineto
          145 -56 -79 vlineto
          -117 149 24 17 rlineto
          45 29 24 34 70 vvcurveto
          99 289 callgsubr
          -103 vlineto
          -48 33 -42 33 -43 vhcurveto
          -34 -26 rlineto
          -39 -27 -13 -21 -38 vvcurveto
          -116 -98 callgsubr
          192 hlineto
          21 17 4 9 13 hvcurveto
          38 -48 rlineto
          endchar
        </CharString>
        <CharString name="aogonek">
          -84 140 59 -56 callsubr
          43 -217 267 callgsubr
          -33 hlineto
          -55 callgsubr
          -33 3 -25 -8 vlineto
          97 callsubr
          hlineto
          endchar
        </CharString>
        <CharString name="apostrophemod">
          -270 30 622 196 callsubr
        </CharString>
        <CharString name="approxequal">
          60 317 386 rmoveto
          78 callsubr
          -170 vmoveto
          78 callsubr
          endchar
        </CharString>
        <CharString name="aring">
          -84 124 603 -6 callsubr
          2 -468 -59 callgsubr
          -33 69 485 vlineto
          endchar
        </CharString>
        <CharString name="asciicircum">
          31 180 671 rmoveto
          -135 -344 rlineto
          72 hlineto
          104 277 105 -277 rlineto
          72 hlineto
          -135 344 rlineto
          endchar
        </CharString>
        <CharString name="asciitilde">
          60 318 216 rmoveto
          78 callsubr
          endchar
        </CharString>
        <CharString name="asterisk">
          -110 287 500 rmoveto
          -20 59 -38 -12 -22 -7 -17 -8 -13 -7 rlinecurve
          3 14 2 19 23 vvcurveto
          41 -62 -41 vlineto
          -23 2 -19 3 -15 vhcurveto
          -13 7 -17 9 -22 7 -39 13 rcurveline
          -19 -59 39 -13 22 -7 19 -4 14 -2 rlinecurve
          -11 -10 -13 -14 -13 -18 -25 -33 rcurveline
          51 -37 24 33 14 19 9 17 6 13 rlinecurve
          6 -13 10 -17 13 -18 24 -34 rcurveline
          50 37 -24 33 -13 19 -13 14 -11 10 rlinecurve
          14 2 19 3 21 7 rrcurveto
          endchar
        </CharString>
        <CharString name="at">
          239 229 348 rmoveto
          295 callgsubr
          30 hlineto
          31 27 13 36 4 hvcurveto
          -49 126 -70 callgsubr
          325 -98 callsubr
          -362 -88 callgsubr
          -467 -98 callgsubr
          298 61 -277 -103 callgsubr
          440 vlineto
          26 5 6 26 vhcurveto
          321 hlineto
          26 5 -6 -26 hvcurveto
          -300 -99 callgsubr
          -45 287 -68 -34 hlineto
          24 -8 -21 10 -26 hhcurveto
          -30 -88 callgsubr
          69 -11 201 callsubr
          30 hlineto
          24 10 -9 -27 hvcurveto
          -156 202 callsubr
          -30 -103 callgsubr
          endchar
        </CharString>
        <CharString name="atilde">
          -84 140 59 -56 callsubr
          34 393 rmoveto
          -55 callgsubr
          -33 69 485 -69 vlineto
          8 139 rmoveto
          -10 vlineto
          -21 -5 -4 -14 vhcurveto
          -24 -25 35 -42 hhcurveto
          -6 hlineto
          -55 -17 -29 -47 hvcurveto
          -14 62 11 vlineto
          153 callgsubr
          5 hlineto
          56 15 30 46 hvcurveto
          14 vlineto
          endchar
        </CharString>
        <CharString name="b">
          -84 219 278 callgsubr
          -40 hlineto
          -24 -10 9 27 hvcurveto
          296 vlineto
          27 10 9 24 17 callgsubr
          -50 90 rmoveto
          201 callgsubr
          216 -69 -669 69 33 vlineto
          -24 8 20 -9 27 hhcurveto
          40 -104 callgsubr
          328 -60 callgsubr
        </CharString>
        <CharString name="backslash">
          -27 44 699 rmoveto
          264 -835 rlineto
          69 hlineto
          -264 835 rlineto
          endchar
        </CharString>
        <CharString name="bar">
          55 719 rmoveto
          -817 69 817 vlineto
          endchar
        </CharString>
        <CharString name="braceleft">
          -141 180 689 rmoveto
          24 8 9 26 vhcurveto
          50 59 -83 hlineto
          -56 -13 -31 -47 hvcurveto
          -249 vlineto
          -81 -27 -36 -61 vhcurveto
          -19 -58 19 hlineto
          61 27 -36 -80 hvcurveto
          -251 vlineto
          -48 13 -30 56 vhcurveto
          83 59 -50 hlineto
          -26 -8 9 24 hvcurveto
          263 vlineto
          68 -24 44 -51 7 vhcurveto
          51 6 24 44 70 vvcurveto
          endchar
        </CharString>
        <CharString name="braceright">
          -141 90 428 rmoveto
          -70 24 -44 51 -6 vhcurveto
          -51 -7 -24 -44 -68 vvcurveto
          -263 vlineto
          -24 -8 -9 -26 vhcurveto
          -50 -59 83 hlineto
          56 13 30 48 hvcurveto
          251 vlineto
          80 27 36 61 vhcurveto
          19 58 -19 hlineto
          -61 -27 36 81 hvcurveto
          249 vlineto
          47 -13 31 -56 vhcurveto
          -83 -59 50 hlineto
          26 8 -9 -24 hvcurveto
          endchar
        </CharString>
        <CharString name="bracketleft">
          -103 233 722 rmoveto
          59 -170 -948 170 59 -101 830 vlineto
          endchar
        </CharString>
        <CharString name="bracketright">
          -103 223 781 rmoveto
          -170 -59 101 -830 -101 -59 170 hlineto
          endchar
        </CharString>
        <CharString name="breve">
          -12 264 643 58 callsubr
        </CharString>
        <CharString name="brokenbar">
          55 247 rmoveto
          -345 69 345 vlineto
          127 vmoveto
          345 -69 -345 vlineto
          endchar
        </CharString>
        <CharString name="bullet">
          -16 71 321 rmoveto
          -70 57 -57 70 70 57 57 70 70 -57 57 -70 -70 -57 -57 -70 vhcurveto
          endchar
        </CharString>
        <CharString name="c">
          -87 290 341 106 callsubr
        </CharString>
        <CharString name="cacute">
          -87 291 643 36 callsubr
          -74 108 callgsubr
        </CharString>
        <CharString name="caron">
          -12 156 516 rmoveto
          87 hlineto
          85 127 rlineto
          -76 hlineto
          -53 -84 -52 84 rlineto
          -76 hlineto
          endchar
        </CharString>
        <CharString name="ccaron">
          -87 210 516 -4 callsubr
          -4 108 callgsubr
        </CharString>
        <CharString name="ccedilla">
          -87 136 180 callsubr
          154 392 106 callsubr
        </CharString>
        <CharString name="cedilla">
          -12 208 180 callsubr
          endchar
        </CharString>
        <CharString name="cent">
          -87 290 341 rmoveto
          65 -98 callsubr
          -10 76 -65 -76 -17 hlineto
          281 callsubr
          -75 65 75 10 -104 callgsubr
          65 -69 -54 -99 callgsubr
          -50 -73 callgsubr
          50 hlineto
          26 5 -5 -26 hvcurveto
          -54 vlineto
          endchar
        </CharString>
        <CharString name="circumflex">
          -12 71 516 192 callgsubr
        </CharString>
        <CharString name="colon">
          -270 30 hmoveto
          261 callgsubr
          261 vmoveto
          261 callgsubr
          endchar
        </CharString>
        <CharString name="comma">
          -270 30 112 196 callsubr
        </CharString>
        <CharString name="copyright">
          270 651 342 rmoveto
          185 -63 95 -143 vhcurveto
          -190 hlineto
          -143 -63 -95 -185 hvcurveto
          -71 vlineto
          -185 63 -86 143 vhcurveto
          190 hlineto
          143 63 86 185 hvcurveto
          -394 -211 rmoveto
          -111 -30 92 118 hvcurveto
          73 vlineto
          118 30 103 111 vhcurveto
          186 hlineto
          111 30 -103 -118 hvcurveto
          -73 vlineto
          -118 -30 -92 -111 vhcurveto
          -37 180 -80 callgsubr
          -50 -103 callgsubr
          155 39 callsubr
          -24 69 35 289 callgsubr
          -177 169 callsubr
          -104 callgsubr
          35 -69 vlineto
          endchar
        </CharString>
        <CharString name="currency">
          42 207 170 -60 callsubr
          195 16 callsubr
          -195 -99 callgsubr
          99 237 rmoveto
          15 -2 13 -4 10 vhcurveto
          41 41 -46 46 -48 -47 rlineto
          1 -6 -7 0 -7 hhcurveto
          -102 hlineto
          -10 -9 -1 -2 -8 hvcurveto
          -49 49 -46 -46 47 -47 rlineto
          -3 -9 -1 -11 -12 vvcurveto
          -217 vlineto
          -12 1 -10 3 -9 vhcurveto
          -47 -46 46 -46 48 47 rlineto
          -2 8 9 -1 11 hhcurveto
          102 hlineto
          8 7 1 1 7 hvcurveto
          46 -46 46 46 -41 40 rlineto
          4 10 2 13 14 vvcurveto
          endchar
        </CharString>
        <CharString name="d">
          -84 185 callgsubr
          610 rmoveto
          -216 vlineto
          185 callsubr
          vlineto
          endchar
        </CharString>
        <CharString name="dagger">
          -74 333 458 rmoveto
          298 callsubr
          -509 68 509 130 hlineto
          endchar
        </CharString>
        <CharString name="daggerdbl">
          -54 343 399 rmoveto
          59 298 callsubr
          -333 -130 -59 130 -164 68 164 130 59 -130 333 vlineto
          endchar
        </CharString>
        <CharString name="danda">
          -88 310 callsubr
          endchar
        </CharString>
        <CharString name="dcaron">
          -58 185 callgsubr
          394 rmoveto
          185 callsubr
          -69 vlineto
          114 hmoveto
          -160 27 vlineto
          35 121 rlineto
          39 vlineto
          endchar
        </CharString>
        <CharString name="dcroat">
          -79 145 59 -56 callsubr
          148 544 rmoveto
          -45 66 -69 -66 -85 -59 85 -92 hlineto
          -55 callgsubr
          -33 69 544 45 vlineto
          endchar
        </CharString>
        <CharString name="degree">
          -56 292 545 rmoveto
          52 -25 25 -52 vhcurveto
          -80 hlineto
          -52 -25 -25 -52 hvcurveto
          -115 vlineto
          -52 25 -25 52 vhcurveto
          80 hlineto
          52 25 25 52 hvcurveto
          -64 9 rmoveto
          -25 -102 callsubr
          -44 hlineto
          -26 -5 5 25 hvcurveto
          97 vlineto
          25 -102 callgsubr
          44 hlineto
          26 5 -5 -25 hvcurveto
          endchar
        </CharString>
        <CharString name="dieresis">
          -12 68 541 187 callgsubr
          endchar
        </CharString>
        <CharString name="divide">
          -32 25 281 306 callgsubr
          130 150 rmoveto
          -80 70 80 vlineto
          -70 -280 rmoveto
          -80 70 80 vlineto
          endchar
        </CharString>
        <CharString name="dollar">
          -85 140 350 rmoveto
          42 callgsubr
          -11 75 -65 -75 -12 63 callsubr
          -170 -99 callgsubr
          -45 91 callsubr
          118 callsubr
          10 -75 65 75 12 -104 callgsubr
          192 -60 callgsubr
        </CharString>
        <CharString name="dotaccent">
          -12 154 536 rmoveto
          92 86 -92 hlineto
          endchar
        </CharString>
        <CharString name="dotlessi">
          139 callgsubr
          endchar
        </CharString>
        <CharString name="dottedcircle">
          248 139 517 rmoveto
          -26 18 -19 26 26 18 19 26 25 -18 19 -26 -26 -18 -19 -25 vhcurveto
          -82 -110 rmoveto
          -25 20 -19 26 24 20 19 25 25 -20 19 -24 -26 -20 -19 -25 vhcurveto
          -13 -126 rmoveto
          -25 19 -18 25 26 18 18 311 callgsubr
          52 -116 rmoveto
          -26 18 -18 26 25 19 18 26 25 -19 19 -25 -26 -18 -19 -25 vhcurveto
          101 -75 rmoveto
          -26 19 -20 26 25 19 20 26 24 -19 20 -25 -26 -19 -20 -24 vhcurveto
          127 -16 rmoveto
          -26 18 -18 26 26 19 18 26 26 -19 18 -26 -26 -18 -18 -26 vhcurveto
          121 53 rmoveto
          -26 19 -18 25 25 20 18 26 25 -20 19 -25 -25 -19 -19 -25 vhcurveto
          73 98 rmoveto
          -25 19 -19 26 24 19 19 25 26 -19 19 -24 -26 -19 -19 -26 vhcurveto
          10 134 rmoveto
          -26 18 -18 26 25 19 18 26 26 -19 18 -25 -26 -18 -18 -26 vhcurveto
          -50 118 rmoveto
          -25 19 -19 25 26 18 19 311 callgsubr
          -95 68 rmoveto
          -24 19 -20 26 25 18 20 24 26 -18 19 -25 -26 -19 -19 -26 vhcurveto
          -126 15 rmoveto
          -26 18 -18 26 26 18 18 26 26 -18 18 -26 -26 -18 -18 -26 vhcurveto
          endchar
        </CharString>
        <CharString name="doubledanda">
          77 310 callsubr
          165 684 rmoveto
          -64 -684 64 hlineto
          endchar
        </CharString>
        <CharString name="dvA">
          88 520 31 callgsubr
          -143 -70 callsubr
          75 vlineto
          endchar
        </CharString>
        <CharString name="dvAA">
          268 699 31 callgsubr
          -322 -70 callsubr
          111 -563 143 callgsubr
        </CharString>
        <CharString name="dvAI">
          -35 397 31 callgsubr
          -75 152 callsubr
          -269 30 callgsubr
        </CharString>
        <CharString name="dvAU">
          268 699 31 callgsubr
          -78 hlineto
          -45 191 233 callgsubr
          -91 hlineto
          140 -132 32 -30 23 -19 13 -10 rlinecurve
          -166 -70 callsubr
          111 -563 143 callgsubr
        </CharString>
        <CharString name="dvAbbreviationsign">
          -59 60 305 rmoveto
          -80 46 -46 70 70 47 46 80 80 -47 46 -70 -70 -46 -46 -80 vhcurveto
          63 hmoveto
          45 18 24 35 35 19 -24 -45 -45 -19 -24 -35 -35 -18 24 45 vhcurveto
          endchar
        </CharString>
        <CharString name="dvAcandra">
          13 520 31 callgsubr
          -143 -70 callsubr
          75 vlineto
          -40 228 59 callsubr
        </CharString>
        <CharString name="dvAnusvara">
          -412 -130 813 210 callgsubr
        </CharString>
        <CharString name="dvAnusvara.amI">
          -412 20 743 210 callgsubr
        </CharString>
        <CharString name="dvAvagraha">
          -69 280 281 callgsubr
          -139 vlineto
          -104 callsubr
          -155 147 callgsubr
          26 5 -5 -26 hvcurveto
          -188 -7 callgsubr
          75 -69 -86 -98 callgsubr
          85 -104 callgsubr
          210 -98 callsubr
          -52 226 callgsubr
          endchar
        </CharString>
        <CharString name="dvB">
          -207 296 31 callgsubr
          -316 -59 316 hlineto
          -167 -485 rmoveto
          167 46 hlineto
          0 -50 115 -8 callgsubr
          -52 callgsubr
          -10 90 246 callgsubr
          endchar
        </CharString>
        <CharString name="dvBA">
          -28 150 137 199 callsubr
          -424 -59 280 -238 hlineto
          144 callsubr
        </CharString>
        <CharString name="dvBH">
          -57 136 callsubr
          222 59 rmoveto
          -153 142 hlineto
          -49 callsubr
          153 vlineto
          endchar
        </CharString>
        <CharString name="dvBHA">
          117 136 callsubr
          326 280 rmoveto
          -144 -221 -113 142 hlineto
          -49 callsubr
          113 -342 69 -29 callsubr
        </CharString>
        <CharString name="dvBH_LA">
          431 136 callsubr
          637 280 rmoveto
          -523 -59 386 -78 76 callgsubr
          -5 -105 122 callgsubr
          105 -263 -62 callgsubr
          63 -426 69 563 68 hlineto
          endchar
        </CharString>
        <CharString name="dvBH_NA">
          409 540 168 -92 callsubr
          -317 -258 -47 callgsubr
          618 280 rmoveto
          -461 -59 317 169 callgsubr
          -5 -88 122 callgsubr
          88 -185 37 callsubr
        </CharString>
        <CharString name="dvBH_R">
          -6 228 -50 rmoveto
          198 220 rlineto
          92 vlineto
          -283 -312 rlineto
          80 268 241 callgsubr
          69 59 rmoveto
          142 vlineto
          -74 callgsubr
          -131 -99 vlineto
          -53 -26 -26 -53 hvcurveto
          -115 -78 callgsubr
          135 134 59 vlineto
          endchar
        </CharString>
        <CharString name="dvBH_RA">
          117 223 218 241 callgsubr
          326 280 rmoveto
          -144 -221 -113 94 callsubr
          197 rlineto
          -147 69 1 callsubr
          endchar
        </CharString>
        <CharString name="dvBH_R_YA">
          386 674 174 callgsubr
          -451 -345 241 callgsubr
          595 280 rmoveto
          -483 -59 135 hlineto
          -26 callsubr
          -99 -99 callgsubr
          -193 94 callsubr
          196 rlineto
          -46 4 26 -22 49 hhcurveto
          -93 callsubr
        </CharString>
        <CharString name="dvBH_VA">
          283 136 callsubr
          492 280 rmoveto
          -378 -59 234 -392 hlineto
          -26 -8 -8 -97 callgsubr
          -5 -105 122 callgsubr
          105 -185 85 callgsubr
        </CharString>
        <CharString name="dvBH_YA">
          361 649 171 -6 callgsubr
        </CharString>
        <CharString name="dvB_BA">
          187 365 137 -77 callgsubr
          -286 hmoveto
          -107 callgsubr
          25 callgsubr
          0 15 -39 36 -68 vhcurveto
          78 -147 rlineto
          -3 -5 -7 -1 -10 hhcurveto
          388 485 rmoveto
          -639 -59 495 -238 hlineto
          -89 6 -46 -28 callsubr
          -135 -9 callgsubr
          16 5 14 8 94 callgsubr
          99 -91 callgsubr
        </CharString>
        <CharString name="dvB_BHA">
          337 304 callsubr
          218 -395 rmoveto
          -26 -5 -5 -26 vhcurveto
          -47 hlineto
          -26 -5 5 26 hvcurveto
          143 31 callsubr
          102 hlineto
          25 15 5 14 9 hvcurveto
          -13 14 19 -6 26 hhcurveto
          89 -104 callgsubr
          185 113 -342 69 -29 callsubr
        </CharString>
        <CharString name="dvB_BH_RA">
          332 304 callsubr
          213 -345 rmoveto
          -26 -5 -5 -26 vhcurveto
          -47 hlineto
          -26 -5 5 26 hvcurveto
          93 31 callsubr
          105 hlineto
          45 23 19 34 10 hvcurveto
          -2 8 9 -1 10 hhcurveto
          183 callsubr
        </CharString>
        <CharString name="dvB_DA">
          132 142 137 -77 callgsubr
          271 289 rmoveto
          137 75 59 -584 -59 440 -78 -89 vlineto
          -104 callsubr
          -81 vlineto
          -12 callgsubr
          102 hlineto
          25 16 5 14 8 hvcurveto
          -13 13 20 -6 26 hhcurveto
          -22 callsubr
        </CharString>
        <CharString name="dvB_DHA">
          225 304 callsubr
          -70 -426 -77 callgsubr
          426 485 rmoveto
          -144 -451 hlineto
          32 callgsubr
          -158 -83 callsubr
          -24 -9 callgsubr
          16 5 14 8 hvcurveto
          -13 13 20 -6 26 hhcurveto
          137 -91 callgsubr
        </CharString>
        <CharString name="dvB_DH_VA">
          399 304 callsubr
          -70 -426 -77 callgsubr
          600 485 rmoveto
          -335 -59 191 -392 hlineto
          -26 -8 -8 -97 callgsubr
          -235 vlineto
          32 callgsubr
          -158 -83 callsubr
          -24 -9 callgsubr
          16 5 14 8 hvcurveto
          -13 13 20 -6 26 hhcurveto
          140 hlineto
          25 16 5 14 8 94 callgsubr
          63 -91 callgsubr
        </CharString>
        <CharString name="dvB_JA">
          280 142 137 -77 callgsubr
          499 485 rmoveto
          -737 -59 593 -78 -156 -317 87 callsubr
          269 87 -426 69 -29 callsubr
        </CharString>
        <CharString name="dvB_JHA">
          324 632 97 callgsubr
          -490 -426 -77 callgsubr
          558 485 rmoveto
          -796 -59 467 -78 -98 -88 callgsubr
          -4 callgsubr
          103 -69 -75 hlineto
          -132 261 rlineto
          72 59 -91 -88 callgsubr
          -52 callgsubr
          106 hlineto
          20 15 5 9 10 hvcurveto
          -92 69 78 104 -70 callgsubr
          88 182 callsubr
          109 -265 244 callsubr
        </CharString>
        <CharString name="dvB_J_YA">
          542 842 -69 callsubr
          177 32 -70 callgsubr
          112 -21 callgsubr
          -700 -426 -77 callgsubr
          768 485 rmoveto
          -1006 -59 658 hlineto
          -26 callsubr
          -96 -99 callgsubr
          -236 -236 87 callsubr
          188 87 -188 -63 callsubr
        </CharString>
        <CharString name="dvB_JxA">
          298 351 -86 3 callsubr
          -196 137 -77 callgsubr
          499 485 rmoveto
          -750 -59 606 69 callsubr
          -69 -214 -9 callgsubr
          15 5 14 9 hvcurveto
          -13 13 20 -6 26 hhcurveto
          76 hlineto
          54 25 -83 callgsubr
          269 87 -426 69 -29 callsubr
        </CharString>
        <CharString name="dvB_LA">
          296 155 137 -77 callgsubr
          497 485 rmoveto
          -748 -59 611 -78 76 callgsubr
          -81 vlineto
          -12 callgsubr
          99 -94 callsubr
          -8 -62 callgsubr
          63 -426 69 563 68 hlineto
          endchar
        </CharString>
        <CharString name="dvB_L_YA">
          572 860 -69 callsubr
          188 32 -70 callgsubr
          101 -21 callgsubr
          -705 -426 -77 callgsubr
          773 485 rmoveto
          -1024 -59 676 hlineto
          -26 callsubr
          -85 232 callgsubr
          -72 hlineto
          -53 -26 -26 -53 hvcurveto
          -11 vlineto
          -12 callgsubr
          99 -94 callsubr
          -8 140 callgsubr
          62 -61 -103 callgsubr
          232 90 callsubr
          -176 69 176 -106 callgsubr
          63 -199 hlineto
          -92 callgsubr
        </CharString>
        <CharString name="dvB_NA">
          294 425 168 -92 callsubr
          -270 -289 -77 callgsubr
          495 485 rmoveto
          -746 -59 602 169 callgsubr
          -135 -9 callgsubr
          16 5 14 8 hvcurveto
          -13 14 19 -6 26 175 callgsubr
        </CharString>
        <CharString name="dvB_R">
          -134 -20 31 callgsubr
          -59 316 59 vlineto
          -177 -454 246 callgsubr
          -69 238 rmoveto
          -52 callgsubr
          92 hlineto
          -107 -128 rlineto
          81 hlineto
          101 128 rlineto
          46 vlineto
          0 -50 115 -8 callgsubr
          endchar
        </CharString>
        <CharString name="dvB_RA">
          -28 150 167 223 callgsubr
          178 455 rmoveto
          -424 -59 280 282 callsubr
          -76 124 rlineto
          76 59 -91 -88 callgsubr
          -219 vlineto
          -53 26 -26 53 vhcurveto
          52 -45 callsubr
        </CharString>
        <CharString name="dvB_SA">
          316 605 344 251 callsubr
          -450 -426 -77 callgsubr
          517 485 rmoveto
          -768 -59 431 hlineto
          126 callgsubr
          -121 hlineto
          -12 callgsubr
          99 -94 callsubr
          -8 -22 callgsubr
        </CharString>
        <CharString name="dvB_SHA">
          314 235 31 callgsubr
          -255 -59 255 hlineto
          -70 -426 -77 callgsubr
          115 486 108 callsubr
          -49 hlineto
          -12 callgsubr
          99 -94 callsubr
          -8 -31 callsubr
        </CharString>
        <CharString name="dvB_TA">
          171 155 137 -77 callgsubr
          382 485 rmoveto
          -633 -59 489 248 callgsubr
          -81 vlineto
          -12 callgsubr
          99 -94 callsubr
          -8 -40 callgsubr
        </CharString>
        <CharString name="dvB_VA">
          151 155 137 -77 callgsubr
          352 485 rmoveto
          -603 -59 459 -392 hlineto
          -26 -8 -8 -97 callgsubr
          -135 -9 callgsubr
          15 5 14 9 hvcurveto
          -13 13 20 -6 26 hhcurveto
          63 -91 callgsubr
        </CharString>
        <CharString name="dvB_YA">
          246 534 -86 callsubr
          -379 -426 -77 callgsubr
          447 485 rmoveto
          -698 -59 350 173 callsubr
          -53 -26 -26 -53 hvcurveto
          -249 172 callgsubr
        </CharString>
        <CharString name="dvC">
          -205 137 395 rmoveto
          28 callgsubr
          149 59 -128 -103 callgsubr
          -157 454 rmoveto
          -59 316 59 vlineto
          endchar
        </CharString>
        <CharString name="dvCA">
          -26 406 622 100 callsubr
        </CharString>
        <CharString name="dvCH">
          89 521 31 callgsubr
          -541 -59 83 259 callsubr
          -182 -83 callsubr
          -181 -98 callgsubr
          240 -104 callgsubr
          327 -98 callsubr
          -52 -88 callgsubr
          -81 callsubr
          347 hlineto
          endchar
        </CharString>
        <CharString name="dvCHA">
          89 318 485 4 callsubr
        </CharString>
        <CharString name="dvCH_R">
          -412 endchar
        </CharString>
        <CharString name="dvCH_RA">
          89 318 -15 callsubr
          -541 -59 83 229 callgsubr
          -181 -98 callgsubr
          59 hlineto
          -74 -140 rlineto
          7 callgsubr
          -73 140 rlineto
          56 -104 callgsubr
          327 vlineto
          50 -23 26 -48 3 vhcurveto
          78 vlineto
          endchar
        </CharString>
        <CharString name="dvCH_R_YA">
          516 804 -69 callsubr
          57 32 -70 callgsubr
          102 -98 callsubr
          -314 -88 callgsubr
          -81 callsubr
          630 hlineto
          135 callsubr
          -968 -59 83 259 callsubr
          -182 -83 callsubr
          -181 -98 callgsubr
          55 hlineto
          -74 -140 rlineto
          7 callgsubr
          -73 140 rlineto
          60 -104 callgsubr
          327 182 callsubr
          163 -95 callsubr
          -80 197 callgsubr
          -127 hlineto
          -92 callgsubr
        </CharString>
        <CharString name="dvCH_YA">
          516 804 -69 callsubr
          57 32 -70 callgsubr
          102 -98 callsubr
          -314 -88 callgsubr
          -81 callsubr
          630 hlineto
          135 callsubr
          -968 -59 83 259 callsubr
          -182 -83 callsubr
          -181 -98 callgsubr
          240 -104 callgsubr
          327 182 callsubr
          163 -95 callsubr
          -80 197 callgsubr
          -127 hlineto
          -92 callgsubr
        </CharString>
        <CharString name="dvC_CA">
          168 600 31 callgsubr
          -620 -59 476 110 callgsubr
          21 5 10 28 vhcurveto
          39 59 -174 -59 41 259 callsubr
          -230 vlineto
          -24 -8 -9 146 callgsubr
          21 5 10 28 vhcurveto
          9 59 -174 -59 71 47 callsubr
          85 236 callsubr
          83 -91 callgsubr
        </CharString>
        <CharString name="dvC_CHA">
          296 525 -15 callsubr
          -748 -59 290 229 callgsubr
          -90 vlineto
          30 callsubr
          17 14 2 6 10 hvcurveto
          -7 -98 callgsubr
          240 -104 callgsubr
          327 vlineto
          50 -23 26 -48 3 vhcurveto
          78 vlineto
          endchar
        </CharString>
        <CharString name="dvC_CH_VA">
          296 525 -54 callsubr
          -99 -662 rmoveto
          250 callsubr
          41 vlineto
          20 3 8 13 2 vhcurveto
          110 -68 hlineto
          271 callgsubr
          234 662 rmoveto
          59 -748 -59 290 229 callgsubr
          -90 vlineto
          30 callsubr
          17 14 2 6 10 hvcurveto
          -7 vlineto
          -51 24 -26 50 -2 vhcurveto
          -5 -5 -2 -8 -12 vvcurveto
          -56 202 callgsubr
          89 217 callgsubr
          215 vlineto
          45 4 22 26 49 vvcurveto
          327 vlineto
          50 -23 26 -48 3 vhcurveto
          78 vlineto
          endchar
        </CharString>
        <CharString name="dvC_MA">
          334 622 9 callsubr
          326 249 rmoveto
          -786 -59 460 154 callgsubr
          -183 vlineto
          30 callsubr
          30 18 7 15 10 hvcurveto
          -15 13 21 -7 28 hhcurveto
          175 callsubr
        </CharString>
        <CharString name="dvC_NA">
          291 422 -9 callsubr
          -743 -59 599 169 callgsubr
          -236 vlineto
          30 callsubr
          30 18 7 15 10 hvcurveto
          -15 13 21 -7 28 175 callgsubr
        </CharString>
        <CharString name="dvC_R">
          -166 137 395 rmoveto
          219 callsubr
          40 59 -204 275 callsubr
          -213 148 callsubr
          -27 callgsubr
          115 175 rlineto
          42 -98 250 callgsubr
          -157 424 rmoveto
          -59 286 59 vlineto
          endchar
        </CharString>
        <CharString name="dvC_RA">
          -21 310 callgsubr
          -362 hlineto
          -82 callgsubr
          -60 -103 callgsubr
          197 vlineto
          219 callsubr
          40 59 -204 275 callsubr
          -213 148 callsubr
          -45 callsubr
        </CharString>
        <CharString name="dvC_YA">
          243 531 -18 callsubr
          -695 -59 347 -41 callsubr
          -204 hlineto
          30 callsubr
          30 18 7 15 10 hvcurveto
          -15 13 21 254 callgsubr
        </CharString>
        <CharString name="dvCandrabindu">
          86 callsubr
          30 39 rmoveto
          -69 68 69 vlineto
          endchar
        </CharString>
        <CharString name="dvD">
          -35 230 hmoveto
          69 266 -69 -95 hlineto
          -26 -8 -8 -26 vhcurveto
          -41 hlineto
          -26 -5 5 26 hvcurveto
          227 222 callsubr
          205 callgsubr
          67 -148 227 callsubr
        </CharString>
        <CharString name="dvDA">
          -65 292 426 rmoveto
          137 75 59 -387 -59 243 -78 -89 vlineto
          -53 -26 -26 -53 hvcurveto
          -249 -21 callsubr
        </CharString>
        <CharString name="dvDA_mvR">
          86 callgsubr
          -86 -3 vlineto
          -51 -25 -84 callsubr
          -58 44 callsubr
          48 324 -69 -95 hlineto
          120 callgsubr
        </CharString>
        <CharString name="dvDD">
          -61 131 -61 68 callgsubr
          -227 683 rmoveto
          -59 232 -78 -73 vlineto
          -53 -26 -26 -53 hvcurveto
          -78 callsubr
          121 137 90 59 hlineto
          endchar
        </CharString>
        <CharString name="dvDDA">
          -61 281 278 callsubr
          -391 -59 232 -78 -73 vlineto
          -53 -26 -26 -53 hvcurveto
          13 callsubr
        </CharString>
        <CharString name="dvDDH">
          -35 131 -61 68 callgsubr
          75 487 rmoveto
          137 115 59 -417 -59 233 -78 -79 vlineto
          -30 callgsubr
          endchar
        </CharString>
        <CharString name="dvDDHA">
          -35 282 143 callsubr
          115 59 -417 -59 233 -78 -79 vlineto
          -30 callgsubr
          endchar
        </CharString>
        <CharString name="dvDDH_DDHA">
          -35 282 143 callsubr
          115 59 -417 181 callsubr
          -189 -83 callsubr
          -186 283 callsubr
          41 -98 callsubr
          -91 -59 70 -95 callsubr
          -19 186 callsubr
          164 -106 callgsubr
          114 -104 callgsubr
          88 callgsubr
          endchar
        </CharString>
        <CharString name="dvDDH_R">
          -35 151 -152 68 callgsubr
          -247 774 rmoveto
          181 callsubr
          -327 vlineto
          -51 24 -26 48 -2 vhcurveto
          -74 -140 rlineto
          7 callgsubr
          -74 140 rlineto
          48 3 23 26 50 vvcurveto
          125 -98 callsubr
          -62 -59 41 -95 callsubr
          -103 -99 callgsubr
          -67 -73 callgsubr
          127 137 115 59 hlineto
          endchar
        </CharString>
        <CharString name="dvDDH_RA">
          -35 282 143 callsubr
          115 59 -417 181 callsubr
          -327 vlineto
          -51 24 -26 48 -2 vhcurveto
          -74 -140 rlineto
          7 callgsubr
          -74 140 rlineto
          48 3 23 26 50 vvcurveto
          125 -98 callsubr
          -62 -59 41 -95 callsubr
          -103 -99 callgsubr
          -67 -73 callgsubr
          endchar
        </CharString>
        <CharString name="dvDDH_VA">
          -35 246 142 rmoveto
          -102 236 callgsubr
          105 vlineto
          142 284 rmoveto
          137 115 59 -417 181 callsubr
          -185 vlineto
          -24 5 -18 11 -13 vhcurveto
          -139 202 callgsubr
          69 183 callgsubr
          -55 69 249 vlineto
          22 12 11 23 34 vvcurveto
          88 callgsubr
          endchar
        </CharString>
        <CharString name="dvDDH_YA">
          366 654 -69 callsubr
          92 32 -70 callgsubr
          -36 callsubr
          -204 78 372 hlineto
          135 callsubr
          -818 280 callsubr
          hlineto
          -30 callgsubr
          310 -95 callsubr
          -45 197 callgsubr
          -162 hlineto
          -92 callgsubr
        </CharString>
        <CharString name="dvDDHxA">
          -35 154 -139 3 callsubr
          128 479 rmoveto
          137 115 59 -417 -59 233 -78 -79 vlineto
          -30 callgsubr
          endchar
        </CharString>
        <CharString name="dvDD_DDA">
          95 callgsubr
          -40 -98 callgsubr
          114 277 callsubr
          186 callsubr
          12 -69 -23 283 callsubr
          46 -98 callsubr
          -114 308 callgsubr
          -106 callgsubr
          114 -104 callgsubr
          47 -98 callsubr
          -102 308 callgsubr
          -106 callgsubr
          endchar
        </CharString>
        <CharString name="dvDD_DDHA">
          95 callgsubr
          -185 283 callsubr
          88 callgsubr
          114 -104 callgsubr
          47 -98 callsubr
          -102 308 callgsubr
          -106 callgsubr
          endchar
        </CharString>
        <CharString name="dvDD_R">
          -61 131 -152 68 callgsubr
          74 578 309 callgsubr
          -391 -59 232 -78 -73 vlineto
          41 callsubr
          -48 21 -25 43 -5 vhcurveto
          -75 -141 rlineto
          273 callgsubr
          37 7 19 25 105 callsubr
          endchar
        </CharString>
        <CharString name="dvDD_RA">
          -61 281 278 callsubr
          -391 -59 232 -78 -73 vlineto
          41 callsubr
          -48 21 -25 43 -5 vhcurveto
          -75 -141 rlineto
          273 callgsubr
          37 7 19 25 105 callsubr
          endchar
        </CharString>
        <CharString name="dvDD_VA">
          -53 250 90 rmoveto
          271 callgsubr
          -78 hlineto
          250 callsubr
          33 -106 callgsubr
          69 hlineto
          14 12 2 3 10 hvcurveto
          53 270 256 callsubr
          -97 vlineto
          -104 callsubr
          -30 140 callgsubr
          hlineto
          26 5 -5 -21 hvcurveto
          -35 vlineto
          -21 -102 callsubr
          -74 -103 callgsubr
          13 -69 -27 -83 callsubr
          -55 202 callgsubr
          99 217 callgsubr
          334 -98 callsubr
          -82 hlineto
          -26 -5 5 21 hvcurveto
          13 -106 callgsubr
          endchar
        </CharString>
        <CharString name="dvDD_YA">
          335 623 -69 callsubr
          92 32 -70 callgsubr
          -36 callsubr
          -174 78 342 hlineto
          135 callsubr
          -787 -59 232 -78 -73 hlineto
          -53 -26 -26 -53 hvcurveto
          -78 callsubr
          274 -95 callsubr
          -45 197 callgsubr
          -162 hlineto
          -92 callgsubr
        </CharString>
        <CharString name="dvDDxA">
          -61 129 -139 3 callsubr
          152 479 309 callgsubr
          -391 -59 232 -78 -73 vlineto
          -53 -26 -26 -53 hvcurveto
          13 callsubr
        </CharString>
        <CharString name="dvDH">
          -82 141 404 rmoveto
          133 -106 callgsubr
          10 -95 callsubr
          -45 52 56 -98 callsubr
          -35 -88 callgsubr
          -158 109 callsubr
          270 59 -249 -103 callgsubr
          115 -51 callsubr
          endchar
        </CharString>
        <CharString name="dvDHA">
          32 464 31 callgsubr
          -144 -451 -10 callsubr
          137 -91 callgsubr
        </CharString>
        <CharString name="dvDH_MA">
          392 680 402 rmoveto
          -113 161 113 hlineto
          -182 -395 -77 callsubr
          326 279 rmoveto
          -504 -59 178 -161 161 callsubr
          -152 49 callsubr
          89 -104 callgsubr
          186 113 -343 69 -29 callsubr
        </CharString>
        <CharString name="dvDH_NA">
          349 480 -9 callsubr
          -461 -59 317 169 callgsubr
          -235 49 callsubr
          21 callgsubr
          88 -426 69 1 callsubr
          endchar
        </CharString>
        <CharString name="dvDH_N_YA">
          621 909 -33 callsubr
          573 256 rmoveto
          -733 -59 385 hlineto
          -26 callsubr
          -75 -99 callgsubr
          -321 -88 callgsubr
          -175 49 callsubr
          -37 callgsubr
        </CharString>
        <CharString name="dvDH_R">
          -117 72 187 rmoveto
          -107 callsubr
          90 177 callsubr
          -153 250 callgsubr
          105 -51 callsubr
          113 vlineto
          26 5 5 26 vhcurveto
          10 -95 callsubr
          -45 52 56 -98 callsubr
          -35 -88 callgsubr
          -138 -83 callsubr
          endchar
        </CharString>
        <CharString name="dvDH_RA">
          32 464 31 callgsubr
          -144 -421 hlineto
          -82 callgsubr
          -114 -103 callgsubr
          105 -51 callsubr
          113 vlineto
          26 5 5 26 vhcurveto
          10 -95 callsubr
          -45 52 56 -98 callsubr
          -35 -88 callgsubr
          -138 -83 callsubr
          189 callsubr
          90 -45 callsubr
        </CharString>
        <CharString name="dvDH_VA">
          206 638 31 callgsubr
          -318 -59 174 -392 hlineto
          -26 -8 -8 -97 callgsubr
          -235 49 callsubr
          63 -91 callgsubr
        </CharString>
        <CharString name="dvDH_YA">
          301 589 -18 callsubr
          -413 -59 65 -41 callsubr
          -203 hlineto
          -19 callgsubr
          -93 callsubr
        </CharString>
        <CharString name="dvD_BA">
          -33 224 206 rmoveto
          14 12 2 3 10 hvcurveto
          -121 vlineto
          -4 0 -3 -1 -4 vhcurveto
          -119 126 rlineto
          1 4 5 0 6 hhcurveto
          75 -147 rmoveto
          -78 hlineto
          250 callsubr
          88 vlineto
          111 -116 rlineto
          78 367 256 callsubr
          -110 vlineto
          -104 callsubr
          33 callsubr
        </CharString>
        <CharString name="dvD_BHA">
          64 126 175 249 callsubr
          -30 -59 9 -95 callsubr
          -241 69 77 169 59 -169 vlineto
          295 337 rmoveto
          167 75 59 -516 -59 372 -108 -89 vlineto
          -104 callsubr
          -186 vlineto
          272 callgsubr
          286 -69 -82 vlineto
          -82 callgsubr
          -41 -103 callgsubr
          164 -106 callgsubr
          endchar
        </CharString>
        <CharString name="dvD_B_RA">
          -33 224 214 rmoveto
          14 12 2 3 10 hvcurveto
          -126 vlineto
          -3 vlineto
          -118 123 rlineto
          1 4 4 0 5 hhcurveto
          -3 -155 rmoveto
          250 callsubr
          96 vlineto
          3 vlineto
          119 -125 rlineto
          -1 -4 -6 -1 -7 hhcurveto
          87 367 256 callsubr
          -110 vlineto
          -104 callsubr
          -116 -83 callsubr
          -118 202 callgsubr
          43 hlineto
          -103 -108 rlineto
          76 hlineto
          111 120 rlineto
          -69 69 404 -69 -48 vlineto
          -21 -102 callsubr
          -74 -103 callgsubr
          91 -106 callgsubr
          endchar
        </CharString>
        <CharString name="dvD_DA">
          -28 314 278 callsubr
          -424 -59 265 -78 -111 vlineto
          -104 callsubr
          -73 -83 callsubr
          -81 -98 callgsubr
          94 55 callsubr
          -71 -103 callgsubr
          58 -106 callgsubr
          56 59 -56 -103 callgsubr
          48 -106 callgsubr
          endchar
        </CharString>
        <CharString name="dvD_DHA">
          128 124 96 201 callsubr
          36 59 -36 -103 callgsubr
          48 -106 callgsubr
          36 59 -57 hlineto
          167 callgsubr
          361 346 255 callsubr
          -226 vlineto
          157 callgsubr
        </CharString>
        <CharString name="dvD_GA">
          121 callgsubr
          -178 69 357 224 callgsubr
        </CharString>
        <CharString name="dvD_GHA">
          128 485 396 255 callsubr
          -21 -114 vlineto
          167 callgsubr
          46 -106 callgsubr
          36 59 -36 -103 callgsubr
          48 -106 callgsubr
          93 -146 hlineto
          157 callgsubr
        </CharString>
        <CharString name="dvD_G_RA">
          121 callgsubr
          -97 vlineto
          -185 -172 rlineto
          78 hlineto
          107 99 rlineto
          -71 69 420 224 callgsubr
        </CharString>
        <CharString name="dvD_MA">
          119 407 159 rmoveto
          -113 137 274 callgsubr
          167 -106 callgsubr
          137 137 120 hlineto
          135 callsubr
          -571 -59 238 -78 -89 -88 callgsubr
          -189 -98 callgsubr
          188 callgsubr
          -147 69 100 113 -100 69 -29 callsubr
        </CharString>
        <CharString name="dvD_NA">
          86 callgsubr
          -67 -64 vlineto
          -104 callsubr
          -37 69 26 -106 callgsubr
          43 -99 69 404 -69 -95 hlineto
          120 callgsubr
        </CharString>
        <CharString name="dvD_R">
          -65 230 hmoveto
          69 266 274 callgsubr
          197 222 callsubr
          133 callgsubr
          17 -44 callgsubr
          67 -178 227 callsubr
        </CharString>
        <CharString name="dvD_RA">
          -65 292 143 callsubr
          75 59 -387 304 callgsubr
          52 callgsubr
        </CharString>
        <CharString name="dvD_VA">
          -53 214 194 callgsubr
          167 220 rmoveto
          137 67 59 -399 -59 263 -78 -119 vlineto
          -104 callsubr
          33 callsubr
        </CharString>
        <CharString name="dvD_YA">
          31 319 -69 callsubr
          58 -106 callgsubr
          56 59 -56 -103 callgsubr
          48 -106 callgsubr
          80 137 89 hlineto
          135 callsubr
          -483 -59 181 -78 -32 -88 callgsubr
          -73 -83 callsubr
          -81 -63 callsubr
        </CharString>
        <CharString name="dvE">
          -35 397 31 callgsubr
          -417 30 callgsubr
        </CharString>
        <CharString name="dvEcandra">
          -35 242 666 rmoveto
          53 26 26 53 hvcurveto
          46 -64 75 callsubr
          255 -44 rmoveto
          -417 30 callgsubr
        </CharString>
        <CharString name="dvEight">
          22 callsubr
        </CharString>
        <CharString name="dvEyelash">
          -123 309 374 rmoveto
          -104 -103 callgsubr
          62 -69 -73 -98 callgsubr
          125 hlineto
          -329 307 rmoveto
          -59 329 59 vlineto
          endchar
        </CharString>
        <CharString name="dvEyelash_HA">
          95 452 307 callsubr
          -557 -59 403 -78 -105 vlineto
          -104 callsubr
          -62 -74 250 callgsubr
          62 -69 -73 -98 callgsubr
          132 -2 hlineto
          25 callsubr
          endchar
        </CharString>
        <CharString name="dvEyelash_YA">
          127 415 -18 callsubr
          -579 -59 231 hlineto
          -64 callgsubr
          -91 -103 callgsubr
          62 -69 -73 -98 callgsubr
          32 -158 hlineto
          -92 callgsubr
        </CharString>
        <CharString name="dvFive">
          107 callgsubr
        </CharString>
        <CharString name="dvFour">
          167 callsubr
        </CharString>
        <CharString name="dvG">
          -78 135 137 -65 callgsubr
          170 485 rmoveto
          -374 -59 -74 callsubr
          70 vlineto
          endchar
        </CharString>
        <CharString name="dvGA">
          100 135 137 -65 callgsubr
          348 485 rmoveto
          -552 -59 -74 callsubr
          243 callsubr
        </CharString>
        <CharString name="dvGH">
          -175 324 281 callgsubr
          -344 -59 76 vlineto
          29 callsubr
          -141 -83 callsubr
          -144 -98 callgsubr
          197 59 -176 193 callsubr
          endchar
        </CharString>
        <CharString name="dvGHA">
          4 292 151 callsubr
          135 callsubr
          -456 -59 82 hlineto
          266 callsubr
          -136 -83 callsubr
          -144 -98 callgsubr
          133 -91 callgsubr
        </CharString>
        <CharString name="dvGH_MA">
          347 636 9 callsubr
          -306 -236 194 callsubr
          306 154 callgsubr
          -183 vlineto
          -24 -8 -9 -26 vhcurveto
          537 485 rmoveto
          -799 141 callsubr
          89 -104 callgsubr
          216 113 -373 69 563 74 vlineto
          endchar
        </CharString>
        <CharString name="dvGH_NA">
          315 593 485 rmoveto
          188 callsubr
          -236 vlineto
          -24 -8 -9 -26 vhcurveto
          -94 193 callsubr
          445 hlineto
          -157 -395 -92 callsubr
          301 196 rmoveto
          -757 141 callsubr
          21 callgsubr
          88 -426 69 1 callsubr
          endchar
        </CharString>
        <CharString name="dvGH_R">
          -112 327 281 callgsubr
          -347 -59 82 vlineto
          266 callsubr
          -119 -83 callsubr
          -131 -98 callgsubr
          116 177 callsubr
          -179 250 callgsubr
          108 -51 callsubr
          105 vlineto
          219 callsubr
          endchar
        </CharString>
        <CharString name="dvGH_RA">
          4 292 293 callgsubr
          263 callsubr
          107 -51 callsubr
          106 vlineto
          219 callsubr
          143 hlineto
          135 callsubr
          -456 -59 82 hlineto
          266 callsubr
          -120 -83 callsubr
          -130 -98 callgsubr
          86 -45 callsubr
        </CharString>
        <CharString name="dvGH_YA">
          237 545 -86 callsubr
          -397 -426 194 callsubr
          193 -41 callsubr
          -204 hlineto
          -24 -8 -9 -26 vhcurveto
          427 485 rmoveto
          -689 141 callsubr
          302 callsubr
          563 55 vlineto
          endchar
        </CharString>
        <CharString name="dvG_BA">
          297 483 137 -77 callgsubr
          -424 231 callsubr
          553 485 rmoveto
          -757 -59 -74 callsubr
          309 -238 vlineto
          144 callsubr
        </CharString>
        <CharString name="dvG_BHA">
          447 135 137 -65 callgsubr
          -204 426 rmoveto
          -74 callsubr
          64 59 -368 vlineto
          573 -454 -47 callgsubr
          326 280 rmoveto
          -144 -221 -113 142 hlineto
          -49 callsubr
          113 -342 69 -29 callsubr
        </CharString>
        <CharString name="dvG_BH_YA">
          716 135 137 -65 callgsubr
          -204 426 rmoveto
          -74 callsubr
          64 59 -368 vlineto
          999 -451 -6 callgsubr
        </CharString>
        <CharString name="dvG_DA">
          267 135 137 -65 callgsubr
          433 289 rmoveto
          137 75 59 -712 -59 235 -137 -101 vlineto
          -104 callsubr
          -190 -44 callsubr
          406 264 -78 -89 vlineto
          -104 callsubr
          -249 -21 callsubr
        </CharString>
        <CharString name="dvG_DHA">
          340 135 137 -65 callgsubr
          -204 426 rmoveto
          -74 callsubr
          64 59 -368 vlineto
          792 hmoveto
          -144 -451 -10 callsubr
          137 -91 callgsubr
        </CharString>
        <CharString name="dvG_DH_VA">
          514 135 137 -65 callgsubr
          -204 426 rmoveto
          -74 callsubr
          64 59 -368 vlineto
          966 hmoveto
          -318 -59 174 -392 hlineto
          -26 -8 -8 -97 callgsubr
          -235 vlineto
          -72 callgsubr
          148 hlineto
          21 13 5 16 5 hvcurveto
          -14 13 21 -7 27 hhcurveto
          63 -91 callgsubr
        </CharString>
        <CharString name="dvG_DH_YA">
          609 135 137 -65 callgsubr
          -204 426 rmoveto
          -74 callsubr
          64 59 -368 vlineto
          917 -451 6 callgsubr
          -413 -59 65 -41 callsubr
          -203 -10 callsubr
          148 hlineto
          21 13 5 16 5 hvcurveto
          -14 13 21 -7 27 hhcurveto
          -93 callsubr
        </CharString>
        <CharString name="dvG_GA">
          430 465 137 -65 callgsubr
          -379 231 callsubr
          678 485 rmoveto
          -882 -59 -74 callsubr
          261 -137 -101 vlineto
          -104 callsubr
          -190 -44 callsubr
          406 243 callsubr
        </CharString>
        <CharString name="dvG_GHA">
          342 630 151 callsubr
          -495 -426 -65 callgsubr
          590 485 rmoveto
          -794 -59 -74 callsubr
          116 vlineto
          266 callsubr
          -136 -83 callsubr
          -144 -98 callgsubr
          133 -91 callgsubr
        </CharString>
        <CharString name="dvG_JA">
          413 135 137 -65 callgsubr
          661 485 rmoveto
          -865 -59 -74 callsubr
          417 -78 -156 54 callsubr
          87 -426 69 -29 callsubr
        </CharString>
        <CharString name="dvG_LA">
          406 135 137 -65 callgsubr
          654 485 rmoveto
          -858 -59 -74 callsubr
          417 -78 -80 vlineto
          -96 callgsubr
          -206 69 206 vlineto
          26 5 5 26 vhcurveto
          63 -426 69 563 68 hlineto
          endchar
        </CharString>
        <CharString name="dvG_MA">
          447 735 432 48 callgsubr
          -365 -77 callsubr
          -418 -236 -65 callgsubr
          695 485 rmoveto
          -899 -59 -74 callsubr
          269 -131 238 callsubr
          84 callsubr
        </CharString>
        <CharString name="dvG_NA">
          404 535 168 -92 callsubr
          -400 -289 -65 callgsubr
          652 485 rmoveto
          -856 -59 -74 callsubr
          408 -78 -238 vlineto
          191 callgsubr
        </CharString>
        <CharString name="dvG_NNA">
          413 545 168 -23 callsubr
          -410 -426 -65 callgsubr
          661 485 rmoveto
          -865 -59 -74 callsubr
          96 -406 -58 callgsubr
          406 87 287 callgsubr
        </CharString>
        <CharString name="dvG_N_YA">
          676 964 -33 callsubr
          -400 -229 -65 callgsubr
          924 485 rmoveto
          -1128 -59 -74 callsubr
          476 158 callsubr
          -321 -88 callgsubr
          -189 vlineto
          -27 callsubr
        </CharString>
        <CharString name="dvG_R">
          -67 211 -50 83 callgsubr
        </CharString>
        <CharString name="dvG_RA">
          100 135 207 74 callgsubr
        </CharString>
        <CharString name="dvG_R_YA">
          348 636 -86 callsubr
          -501 -356 76 callsubr
          596 415 rmoveto
          -800 -59 235 -78 -101 hlineto
          241 callsubr
          148 214 callgsubr
          -158 hlineto
          -241 -266 rlineto
          85 hlineto
          160 176 rlineto
          -32 9 24 -16 42 hhcurveto
          -93 callsubr
        </CharString>
        <CharString name="dvG_SA">
          426 715 344 251 callsubr
          -580 -426 -65 callgsubr
          674 485 rmoveto
          -878 -59 -74 callsubr
          237 vlineto
          -100 callgsubr
          271 -285 68 1 callsubr
          endchar
        </CharString>
        <CharString name="dvG_VA">
          261 135 137 -65 callgsubr
          509 485 rmoveto
          -713 -59 -74 callsubr
          265 -392 vlineto
          -26 -8 -8 -97 callgsubr
          -249 85 callgsubr
        </CharString>
        <CharString name="dvG_YA">
          356 644 -86 callsubr
          -509 -426 -65 callgsubr
          604 485 rmoveto
          -808 -59 -74 callsubr
          156 214 callgsubr
          -217 hlineto
          -92 callgsubr
        </CharString>
        <CharString name="dvGx">
          -78 120 -87 3 callsubr
          15 138 -65 callgsubr
          170 485 rmoveto
          -374 -59 -74 callsubr
          70 vlineto
          endchar
        </CharString>
        <CharString name="dvGxA">
          100 119 -87 3 callsubr
          16 138 -65 callgsubr
          348 485 rmoveto
          -552 -59 -74 callsubr
          243 callsubr
        </CharString>
        <CharString name="dvGx_R">
          -67 316 -104 3 callsubr
          -105 -32 83 callgsubr
        </CharString>
        <CharString name="dvGx_RA">
          100 290 -130 3 callsubr
          -155 251 74 callgsubr
        </CharString>
        <CharString name="dvH">
          -49 160 -61 68 callgsubr
          -256 683 rmoveto
          -59 259 -78 -105 vlineto
          -53 -26 -26 -53 hvcurveto
          -74 92 callsubr
          153 137 85 59 hlineto
          endchar
        </CharString>
        <CharString name="dvHA">
          -49 308 426 rmoveto
          137 85 59 -413 -59 259 -78 -105 vlineto
          -53 -26 -26 -53 hvcurveto
          -74 -25 callsubr
        </CharString>
        <CharString name="dvHA_mU">
          232 callsubr
          -74 vlineto
          -29 14 -16 23 -2 vhcurveto
          -2 vlineto
          -23 -2 -14 -15 -29 vvcurveto
          -158 -98 callgsubr
          84 -95 callsubr
          -36 -99 callgsubr
          -72 245 callsubr
          90 -104 callgsubr
          58 -98 callsubr
          -84 -24 callgsubr
          endchar
        </CharString>
        <CharString name="dvHA_mUU">
          -39 361 -6 rmoveto
          53 -33 -20 12 -66 hhcurveto
          -87 -24 callgsubr
          153 137 85 59 -413 200 callgsubr
          -38 13 -24 28 -11 vhcurveto
          -2 -7 -1 -9 -10 vvcurveto
          171 callsubr
          endchar
        </CharString>
        <CharString name="dvHA_mvR">
          232 callsubr
          -64 -83 callsubr
          -168 -98 callgsubr
          184 59 -163 -103 callgsubr
          145 -106 callgsubr
          58 hlineto
          11 4 -4 -8 hvcurveto
          -21 -41 -38 -42 vvcurveto
          -39 26 -15 44 vhcurveto
          52 56 -36 hlineto
          -11 -4 4 8 hvcurveto
          21 42 41 42 vvcurveto
          39 -26 15 -44 vhcurveto
          -75 -103 callgsubr
          39 -106 callgsubr
          endchar
        </CharString>
        <CharString name="dvH_LA">
          102 237 callsubr
          235 59 -563 128 callgsubr
          226 -95 callsubr
          -16 -49 vlineto
          -23 -9 -9 -14 -6 hvcurveto
          -1 hlineto
          16 -5 -13 7 -29 hhcurveto
          -33 hlineto
          -45 -21 -21 -43 hvcurveto
          -66 vlineto
          -45 21 -21 45 vhcurveto
          67 51 -50 hlineto
          -22 -4 4 22 hvcurveto
          45 vlineto
          22 4 4 22 vhcurveto
          8 hlineto
          22 4 -4 -22 hvcurveto
          -32 57 32 vlineto
          22 4 4 22 vhcurveto
          34 -147 65 222 hlineto
          -96 callsubr
          -243 -103 callgsubr
          49 -106 callgsubr
          endchar
        </CharString>
        <CharString name="dvH_MA">
          119 413 241 rmoveto
          -95 hlineto
          50 -2 -26 24 -51 hhcurveto
          161 callgsubr
          49 -106 callgsubr
          153 137 105 hlineto
          135 callsubr
          -577 200 callgsubr
          -95 callgsubr
          53 vhcurveto
          184 59 -163 293 callsubr
          -106 callgsubr
          63 -95 callsubr
          -102 69 59 95 -182 69 -29 callsubr
        </CharString>
        <CharString name="dvH_NA">
          -13 237 callsubr
          111 59 -439 129 callgsubr
          123 hlineto
          26 7 -5 -26 hvcurveto
          -19 -74 vlineto
          -53 -21 -84 callsubr
          -28 64 20 -106 callgsubr
          53 -72 61 158 hlineto
          -96 callsubr
          -138 -103 callgsubr
          19 -106 callgsubr
          endchar
        </CharString>
        <CharString name="dvH_NNA">
          52 271 171 rmoveto
          -13 -3 -4 -14 vhcurveto
          -13 hlineto
          -14 -3 4 13 hvcurveto
          115 47 vlineto
          37 140 rmoveto
          137 176 59 -504 129 callgsubr
          14 -122 hlineto
          -38 19 -23 36 vhcurveto
          47 hlineto
          36 19 23 38 hvcurveto
          122 14 178 callgsubr
          -51 66 305 callsubr
          -203 -103 callgsubr
          19 -106 callgsubr
          endchar
        </CharString>
        <CharString name="dvH_R">
          11 172 -61 68 callgsubr
          60 487 45 callsubr
        </CharString>
        <CharString name="dvH_RA">
          11 308 426 45 callsubr
        </CharString>
        <CharString name="dvH_VA">
          34 237 callsubr
          167 59 -495 128 callgsubr
          158 -95 callsubr
          -107 vlineto
          -82 callgsubr
          -57 hlineto
          -22 -4 4 22 hvcurveto
          15 vlineto
          22 4 4 22 vhcurveto
          43 48 -60 hlineto
          -45 -21 -21 -43 hvcurveto
          -36 vlineto
          -45 21 -21 45 vhcurveto
          76 -94 callsubr
          -48 65 242 -98 callsubr
          -175 -103 callgsubr
          49 -106 callgsubr
          endchar
        </CharString>
        <CharString name="dvH_YA">
          131 419 225 rmoveto
          -82 callgsubr
          -88 hlineto
          9 7 5 14 17 vvcurveto
          13 vlineto
          59 -24 30 -63 vhcurveto
          -69 -103 callgsubr
          33 -106 callgsubr
          153 137 111 hlineto
          312 callsubr
          -582 296 callsubr
          -88 callgsubr
          -58 -83 callsubr
          -174 -98 callgsubr
          184 59 -163 -103 callgsubr
          151 -106 callgsubr
          56 -95 callsubr
          -19 -99 callgsubr
          -30 -59 206 -94 callsubr
          -141 143 callgsubr
        </CharString>
        <CharString name="dvI">
          -72 284 143 callsubr
          76 59 -380 17 callsubr
          endchar
        </CharString>
        <CharString name="dvII">
          -72 284 143 callsubr
          76 59 -76 62 vlineto
          26 5 4 -19 callsubr
          -55 hlineto
          -53 -26 -25 -53 hvcurveto
          -73 -235 17 callsubr
          endchar
        </CharString>
        <CharString name="dvII_Anusvara">
          -72 284 724 rmoveto
          26 5 4 -19 callsubr
          -55 hlineto
          -53 -26 -25 -53 hvcurveto
          -113 -235 17 callsubr
          149 137 76 59 -76 hlineto
          30 97 228 callgsubr
        </CharString>
        <CharString name="dvJ">
          -101 399 131 callsubr
        </CharString>
        <CharString name="dvJA">
          78 510 31 callgsubr
          -530 -59 386 -78 -156 101 callgsubr
          87 -426 69 -29 callsubr
        </CharString>
        <CharString name="dvJH">
          -59 292 143 callsubr
          146 59 -458 302 callgsubr
          -98 vlineto
          -53 -26 -26 -53 hvcurveto
          -45 callgsubr
          139 59 -292 hlineto
          146 callsubr
          endchar
        </CharString>
        <CharString name="dvJHA">
          65 callsubr
          -265 244 callsubr
        </CharString>
        <CharString name="dvJH_MA">
          463 751 432 48 callgsubr
          -365 -77 callsubr
          -423 -49 rmoveto
          127 callgsubr
          277 154 callgsubr
          -29 vlineto
          504 298 rmoveto
          -915 302 callgsubr
          -98 -88 callgsubr
          -45 callgsubr
          92 -78 221 callsubr
        </CharString>
        <CharString name="dvJH_NA">
          420 708 485 rmoveto
          188 callsubr
          -82 -245 vlineto
          127 callgsubr
          416 hlineto
          -157 -395 -92 callsubr
          301 196 rmoveto
          -872 302 callgsubr
          -98 -88 callgsubr
          -45 callgsubr
          92 -108 hlineto
          20 callgsubr
        </CharString>
        <CharString name="dvJH_R">
          36 275 -50 rmoveto
          203 213 rlineto
          81 vlineto
          -291 -294 rlineto
          105 476 rmoveto
          137 186 59 -498 302 callgsubr
          -98 vlineto
          -53 -26 -26 -53 hvcurveto
          -45 callgsubr
          179 59 -332 hlineto
          146 callsubr
          endchar
        </CharString>
        <CharString name="dvJH_RA">
          65 callsubr
          -78 hlineto
          176 callsubr
        </CharString>
        <CharString name="dvJH_YA">
          372 660 -86 callsubr
          -514 -239 rmoveto
          127 callgsubr
          164 -41 callsubr
          -50 hlineto
          413 298 rmoveto
          -824 302 callgsubr
          -98 -88 callgsubr
          -45 callgsubr
          92 -108 hlineto
          -92 callgsubr
        </CharString>
        <CharString name="dvJ_BA">
          297 475 137 199 callsubr
          -749 -59 605 172 callsubr
          -335 101 callgsubr
          97 258 callsubr
          230 callgsubr
        </CharString>
        <CharString name="dvJ_DA">
          255 612 143 callsubr
          82 59 -714 -59 563 -78 -333 54 callsubr
          97 258 callsubr
          -249 -21 callsubr
        </CharString>
        <CharString name="dvJ_DDA">
          254 596 278 callsubr
          -706 -59 547 -78 -317 54 callsubr
          97 258 callsubr
          13 callsubr
        </CharString>
        <CharString name="dvJ_JA">
          408 840 31 callgsubr
          -860 -59 716 69 callsubr
          -234 54 callsubr
          96 -269 -31 callgsubr
          87 -426 69 -29 callsubr
        </CharString>
        <CharString name="dvJ_JHA">
          449 737 97 callgsubr
          135 callsubr
          -901 -59 572 -78 -342 101 callgsubr
          97 258 callsubr
          -45 callgsubr
          109 -265 244 callsubr
        </CharString>
        <CharString name="dvJ_J_NYA">
          390 822 31 callgsubr
          -842 -59 697 -78 -467 101 callgsubr
          211 vlineto
          150 callgsubr
        </CharString>
        <CharString name="dvJ_J_VA">
          582 1014 31 callgsubr
          -1034 -59 890 -5 callsubr
          -290 195 callsubr
          -234 54 callsubr
          96 -269 -31 callgsubr
          88 119 callsubr
        </CharString>
        <CharString name="dvJ_J_YA">
          668 956 -69 callsubr
          228 32 -70 callgsubr
          61 -21 callgsubr
          135 callsubr
          -1120 -59 772 hlineto
          -26 callsubr
          -45 -99 callgsubr
          -236 -287 hlineto
          148 callgsubr
          -225 -287 vlineto
          51 callgsubr
          -95 callgsubr
          53 vhcurveto
          76 hlineto
          53 26 26 53 hvcurveto
          239 87 -239 -63 callsubr
        </CharString>
        <CharString name="dvJ_KA">
          425 857 281 callgsubr
          -877 -59 569 96 callgsubr
          -299 101 callgsubr
          97 vlineto
          -1 -6 0 -7 -7 vvcurveto
          -249 -90 callgsubr
        </CharString>
        <CharString name="dvJ_MA">
          447 735 432 48 callgsubr
          -365 -77 callsubr
          326 249 rmoveto
          -899 -59 573 -131 -343 -264 hlineto
          -34 callsubr
          264 -69 -275 -58 callgsubr
          216 97 258 callsubr
          84 callsubr
        </CharString>
        <CharString name="dvJ_NA">
          404 535 -9 callsubr
          -856 -59 712 -78 -482 101 callgsubr
          97 258 callsubr
          89 callgsubr
        </CharString>
        <CharString name="dvJ_NY">
          -101 68 426 rmoveto
          111 hlineto
          26 5 -5 -26 hvcurveto
          -227 253 callgsubr
          243 vlineto
          13 -3 8 -5 5 vhcurveto
          129 59 -332 hlineto
          -88 137 rmoveto
          -59 420 59 vlineto
          endchar
        </CharString>
        <CharString name="dvJ_NYA">
          79 511 31 callgsubr
          -531 -59 386 -78 -298 -59 111 hlineto
          150 callgsubr
        </CharString>
        <CharString name="dvJ_NY_YA">
          347 635 -69 callsubr
          197 32 -70 callgsubr
          92 -21 callgsubr
          135 callsubr
          -799 -59 451 hlineto
          -26 callsubr
          -76 -99 callgsubr
          -378 -59 111 -95 callsubr
          -166 253 callgsubr
          182 vlineto
          13 -3 8 -5 5 vhcurveto
          95 -208 hlineto
          -92 callgsubr
        </CharString>
        <CharString name="dvJ_R">
          92 callgsubr
          endchar
        </CharString>
        <CharString name="dvJ_RA">
          78 510 31 callgsubr
          -530 -59 386 -78 -156 43 callsubr
          176 callsubr
        </CharString>
        <CharString name="dvJ_TA">
          291 723 31 callgsubr
          -743 -59 599 -78 -369 101 callgsubr
          97 258 callsubr
          59 callgsubr
        </CharString>
        <CharString name="dvJ_TTA">
          242 602 426 309 callsubr
          -694 -59 553 -78 -323 54 callsubr
          97 258 callsubr
          1 callgsubr
          endchar
        </CharString>
        <CharString name="dvJ_VA">
          261 693 31 callgsubr
          -713 -59 569 -5 callsubr
          -299 101 callgsubr
          97 119 callsubr
        </CharString>
        <CharString name="dvJ_YA">
          347 635 34 callgsubr
        </CharString>
        <CharString name="dvJx">
          -101 121 hmoveto
          -86 73 86 vlineto
          205 131 callsubr
        </CharString>
        <CharString name="dvJxA">
          78 121 -86 3 callsubr
          389 31 callgsubr
          -530 -59 386 -78 -156 101 callgsubr
          87 -426 69 -29 callsubr
        </CharString>
        <CharString name="dvJx_JxA">
          408 124 -79 3 callsubr
          335 -86 3 callsubr
          381 615 rmoveto
          -860 -59 716 69 callsubr
          -234 54 callsubr
          96 -269 -31 callgsubr
          87 -426 69 -29 callsubr
        </CharString>
        <CharString name="dvJx_R">
          92 callgsubr
          -127 -180 210 callgsubr
        </CharString>
        <CharString name="dvJx_RA">
          78 286 -119 3 callsubr
          224 655 rmoveto
          -530 -59 386 -78 -156 43 callsubr
          176 callsubr
        </CharString>
        <CharString name="dvJx_YA">
          347 122 -86 3 callsubr
          513 34 callgsubr
        </CharString>
        <CharString name="dvK">
          -60 441 281 callgsubr
          -461 -59 239 -392 vlineto
          -26 -8 -8 -97 callgsubr
          -52 callgsubr
          63 -32 callsubr
          362 -34 callgsubr
          119 59 -121 209 callgsubr
        </CharString>
        <CharString name="dvKA">
          95 527 281 callgsubr
          -547 -59 239 -392 vlineto
          -26 -8 -8 -97 callgsubr
          -249 -90 callgsubr
        </CharString>
        <CharString name="dvKH">
          -3 361 381 rmoveto
          242 callgsubr
          123 59 -106 -103 callgsubr
          -381 413 rmoveto
          -59 172 vlineto
          -2 callsubr
          254 59 hlineto
          endchar
        </CharString>
        <CharString name="dvKHA">
          172 604 31 callgsubr
          -624 -59 172 hlineto
          26 5 -5 -26 hvcurveto
          -196 vlineto
          -26 -5 -5 -26 vhcurveto
          -35 166 -69 -392 -14 callgsubr
        </CharString>
        <CharString name="dvKH_KHA">
          588 1020 31 callgsubr
          -1040 -76 callgsubr
          324 -35 callgsubr
          -254 hlineto
          -61 callgsubr
          -55 vlineto
          63 callgsubr
        </CharString>
        <CharString name="dvKH_MA">
          493 799 432 rmoveto
          -88 131 88 hlineto
          -157 -365 -77 callsubr
          301 249 rmoveto
          -963 -76 callgsubr
          398 154 callgsubr
          -147 159 callgsubr
          197 -41 callgsubr
          -219 147 callgsubr
          23 20 7 19 8 hvcurveto
          -17 13 22 -9 30 312 callgsubr
          88 -373 69 -29 callsubr
        </CharString>
        <CharString name="dvKH_NA">
          493 624 -9 callsubr
          -945 -76 callgsubr
          537 169 callgsubr
          -189 159 callgsubr
          186 -41 callgsubr
          -208 147 callgsubr
          19 13 5 12 7 hvcurveto
          -39 6 25 -19 46 175 callgsubr
        </CharString>
        <CharString name="dvKH_R">
          11 117 246 38 callgsubr
        </CharString>
        <CharString name="dvKH_RA">
          172 604 622 23 callgsubr
        </CharString>
        <CharString name="dvKH_SHA">
          503 117 246 rmoveto
          56 hlineto
          -39 callsubr
          180 59 -444 -59 172 -35 callgsubr
          -392 hlineto
          -95 callgsubr
          53 vhcurveto
          234 62 -213 -103 callgsubr
          428 530 108 callsubr
          -157 hlineto
          -17 callgsubr
          172 149 callgsubr
          59 -49 163 callsubr
          -55 -31 callsubr
        </CharString>
        <CharString name="dvKH_TA">
          380 812 31 callgsubr
          -832 -59 172 hlineto
          -2 callsubr
          424 248 callgsubr
          -189 vlineto
          -61 callgsubr
          -55 -40 callgsubr
        </CharString>
        <CharString name="dvKH_VA">
          334 766 31 callgsubr
          -786 -76 callgsubr
          394 -392 hlineto
          -26 -8 -8 -97 callgsubr
          -189 159 callgsubr
          186 -41 callgsubr
          -208 147 callgsubr
          19 13 5 12 7 hvcurveto
          -39 6 25 -19 46 hhcurveto
          63 -32 callsubr
          563 59 vlineto
          endchar
        </CharString>
        <CharString name="dvKH_YA">
          445 733 -18 callsubr
          -897 -76 callgsubr
          285 -41 callsubr
          -168 hlineto
          -17 callgsubr
          197 -41 callgsubr
          -219 147 callgsubr
          17 15 3 10 10 hvcurveto
          -29 10 25 -14 39 hhcurveto
          -93 callsubr
        </CharString>
        <CharString name="dvKHx">
          -3 126 -148 3 callsubr
          235 443 rmoveto
          242 callgsubr
          123 59 -106 -103 callgsubr
          -381 413 rmoveto
          -59 172 vlineto
          -2 callsubr
          254 59 hlineto
          endchar
        </CharString>
        <CharString name="dvKHxA">
          172 126 -148 3 callsubr
          478 684 rmoveto
          -624 -59 172 hlineto
          26 5 -5 -26 hvcurveto
          -196 vlineto
          -26 -5 -5 -26 vhcurveto
          -35 166 -69 -392 -14 callgsubr
        </CharString>
        <CharString name="dvKHx_MA">
          493 126 -148 3 callsubr
          673 494 rmoveto
          -88 131 88 hlineto
          -157 -365 -77 callsubr
          301 249 rmoveto
          -963 -76 callgsubr
          398 154 callgsubr
          -147 159 callgsubr
          197 -41 callgsubr
          -219 147 callgsubr
          23 20 7 19 8 hvcurveto
          -17 13 22 -9 30 312 callgsubr
          88 -373 69 -29 callsubr
        </CharString>
        <CharString name="dvKHx_R">
          11 155 -133 3 callsubr
          -38 293 38 callgsubr
        </CharString>
        <CharString name="dvKHx_RA">
          172 390 -130 3 callsubr
          214 666 23 callgsubr
        </CharString>
        <CharString name="dvKHx_SA">
          515 126 -148 3 callsubr
          678 406 251 callsubr
          312 callsubr
          -967 -76 callgsubr
          366 hlineto
          126 callgsubr
          -229 hlineto
          -17 callgsubr
          172 149 callgsubr
          59 -49 163 callsubr
          -55 -22 callgsubr
        </CharString>
        <CharString name="dvKHx_SHA">
          503 126 -148 3 callsubr
          -9 308 rmoveto
          56 hlineto
          -39 callsubr
          180 59 -444 -59 172 -35 callgsubr
          -392 hlineto
          -95 callgsubr
          53 vhcurveto
          234 62 -213 -103 callgsubr
          428 530 108 callsubr
          -157 hlineto
          -17 callgsubr
          172 149 callgsubr
          59 -49 163 callsubr
          -55 -31 callsubr
        </CharString>
        <CharString name="dvKHx_TA">
          380 126 -148 3 callsubr
          686 684 rmoveto
          -832 -59 172 hlineto
          -2 callsubr
          424 248 callgsubr
          -189 vlineto
          -61 callgsubr
          -55 -40 callgsubr
        </CharString>
        <CharString name="dvKHx_VA">
          334 126 -148 3 callsubr
          640 684 rmoveto
          -786 -76 callgsubr
          394 -392 hlineto
          -26 -8 -8 -97 callgsubr
          -189 159 callgsubr
          186 -41 callgsubr
          -208 147 callgsubr
          19 13 5 12 7 hvcurveto
          -39 6 25 -19 46 hhcurveto
          63 -32 callsubr
          563 59 vlineto
          endchar
        </CharString>
        <CharString name="dvKHx_YA">
          445 126 -148 3 callsubr
          607 233 6 callgsubr
          -897 -76 callgsubr
          285 -41 callsubr
          -168 hlineto
          -17 callgsubr
          197 -41 callgsubr
          -219 147 callgsubr
          17 15 3 10 10 hvcurveto
          -29 10 25 -14 39 hhcurveto
          -93 callsubr
        </CharString>
        <CharString name="dvK_CA">
          299 587 171 rmoveto
          -82 callgsubr
          -60 -103 callgsubr
          197 vlineto
          219 callsubr
          40 59 -214 hlineto
          -59 callsubr
          117 299 vlineto
          135 callsubr
          -751 -59 239 -392 hlineto
          -26 -8 -8 -97 callgsubr
          -52 callgsubr
          63 -32 callsubr
          362 -34 callgsubr
          79 259 callsubr
          -213 243 callgsubr
        </CharString>
        <CharString name="dvK_DA">
          273 320 455 124 callsubr
          273 -108 vlineto
          69 -59 rmoveto
          167 82 59 -732 -59 239 -392 vlineto
          -26 -8 -8 -97 callgsubr
          -52 callgsubr
          63 -32 callsubr
          362 -34 callgsubr
          72 hlineto
          -50 callgsubr
          133 callgsubr
          22 callgsubr
          197 -106 callgsubr
          endchar
        </CharString>
        <CharString name="dvK_JA">
          426 714 240 callsubr
          -142 vlineto
          -59 callsubr
          87 426 vlineto
          135 callsubr
          -878 -59 239 -392 hlineto
          -26 -8 -8 -97 callgsubr
          -52 callgsubr
          63 -32 callsubr
          392 -34 callgsubr
          71 213 callsubr
        </CharString>
        <CharString name="dvK_KA">
          428 552 215 callgsubr
          227 -75 callsubr
          -192 hlineto
          -59 callsubr
          87 264 vlineto
          308 hmoveto
          59 -880 -59 239 -392 vlineto
          -26 -8 -8 -97 callgsubr
          -52 callgsubr
          63 -32 callsubr
          392 -34 callgsubr
          61 hlineto
          -3 -9 -2 -10 -10 vvcurveto
          -240 -90 callgsubr
        </CharString>
        <CharString name="dvK_KHA">
          517 528 336 -80 callgsubr
          -35 150 276 callgsubr
          117 209 178 callgsubr
          421 90 rmoveto
          -969 -59 239 -392 hlineto
          -26 -8 -8 -97 callgsubr
          -249 vlineto
          -53 26 -26 53 vhcurveto
          63 hlineto
          14 11 3 6 7 hvcurveto
          -87 69 362 vlineto
          26 8 8 26 vhcurveto
          71 -317 -14 callgsubr
        </CharString>
        <CharString name="dvK_LA">
          424 719 455 rmoveto
          11 callgsubr
          -224 hlineto
          -59 callsubr
          117 431 vlineto
          137 59 rmoveto
          -876 -59 239 -392 hlineto
          -26 -8 -8 -97 callgsubr
          -52 callgsubr
          63 -32 callsubr
          362 -34 callgsubr
          72 hlineto
          -50 callgsubr
          292 callsubr
          82 62 -61 227 callgsubr
          32 hlineto
          26 5 -5 -26 hvcurveto
          -176 69 176 -106 callgsubr
          63 -396 69 563 68 hlineto
          endchar
        </CharString>
        <CharString name="dvK_MA">
          465 753 432 48 callgsubr
          -365 -77 callsubr
          -251 59 102 callsubr
          140 283 -131 vlineto
          326 190 rmoveto
          -917 -59 239 -392 hlineto
          -26 -8 -8 -97 callgsubr
          -52 callgsubr
          63 -32 callsubr
          339 -34 callgsubr
          72 58 callgsubr
        </CharString>
        <CharString name="dvK_NA">
          422 710 455 rmoveto
          -390 hlineto
          -59 callsubr
          117 422 vlineto
          -157 47 callgsubr
          197 21 callsubr
          301 226 rmoveto
          -874 -59 239 -392 hlineto
          -26 -8 -8 -97 callgsubr
          -52 callgsubr
          63 -32 callsubr
          362 -34 callgsubr
          72 hlineto
          -50 callgsubr
          133 callgsubr
          71 -104 callgsubr
          239 88 -396 69 -29 callsubr
        </CharString>
        <CharString name="dvK_NNA">
          426 558 168 -23 callsubr
          -238 72 callsubr
          465 167 rmoveto
          -878 -59 239 -392 hlineto
          -26 -8 -8 -97 callgsubr
          -52 callgsubr
          63 -32 callsubr
          362 -34 callgsubr
          71 -239 hlineto
          -29 callgsubr
          406 87 287 callgsubr
        </CharString>
        <CharString name="dvK_PA">
          279 574 -46 callgsubr
          -254 -108 124 callsubr
          112 -108 vlineto
          318 167 rmoveto
          -738 -59 239 -392 hlineto
          -26 -8 -8 -97 callgsubr
          -52 callgsubr
          63 -32 callsubr
          362 -34 callgsubr
          78 -239 61 callsubr
        </CharString>
        <CharString name="dvK_PHA">
          443 567 50 callsubr
          482 108 rmoveto
          59 -895 -59 239 -392 vlineto
          -26 -8 -8 -97 callgsubr
          -52 callgsubr
          63 -32 callsubr
          362 -34 callgsubr
          71 -239 hlineto
          -100 callsubr
        </CharString>
        <CharString name="dvK_P_RA">
          279 567 12 callgsubr
          -247 72 callsubr
          318 167 rmoveto
          -731 -59 239 -392 hlineto
          -26 -8 -8 -97 callgsubr
          -52 callgsubr
          63 -32 callsubr
          362 -34 callgsubr
          71 -209 hlineto
          2 callgsubr
        </CharString>
        <CharString name="dvK_R">
          0 462 281 callgsubr
          -482 -59 239 -362 vlineto
          -82 callgsubr
          -40 75 callgsubr
          133 callgsubr
          16 62 callgsubr
          362 -34 callgsubr
          140 59 -142 209 callgsubr
        </CharString>
        <CharString name="dvK_RA">
          95 527 281 callgsubr
          -547 -59 239 -362 vlineto
          -82 callgsubr
          -40 75 callgsubr
          133 callgsubr
          14 callgsubr
        </CharString>
        <CharString name="dvK_SA">
          444 733 344 251 callsubr
          -163 -188 46 callgsubr
          306 90 rmoveto
          -896 -59 239 -392 hlineto
          -26 -8 -8 -97 callgsubr
          -249 vlineto
          -53 26 -26 53 vhcurveto
          63 hlineto
          14 11 3 6 7 hvcurveto
          -87 69 362 vlineto
          26 8 8 26 vhcurveto
          71 -317 hlineto
          26 callgsubr
        </CharString>
        <CharString name="dvK_SHA">
          432 474 623 69 callgsubr
          276 callgsubr
          198 60 59 -368 -59 239 -392 vlineto
          -26 -8 -8 -97 callgsubr
          -249 104 callgsubr
          197 vlineto
          53 -26 26 -53 vhcurveto
          160 -1 rmoveto
          270 callsubr
          75 59 vlineto
          endchar
        </CharString>
        <CharString name="dvK_SS">
          6 149 537 rmoveto
          123 callsubr
          -143 -99 callgsubr
          -39 230 callsubr
          302 -88 rmoveto
          57 -139 vlineto
          -28 callgsubr
          endchar
        </CharString>
        <CharString name="dvK_SSA">
          130 251 394 rmoveto
          -26 -5 -5 -26 vhcurveto
          -39 hlineto
          -26 -6 5 26 hvcurveto
          143 vlineto
          26 5 5 26 vhcurveto
          40 hlineto
          26 5 -5 -26 hvcurveto
          311 85 rmoveto
          -144 -259 -106 hlineto
          -28 callgsubr
          288 -306 244 callsubr
        </CharString>
        <CharString name="dvK_SS_MA">
          493 781 432 48 callgsubr
          -365 -77 callsubr
          -348 21 46 callsubr
          674 85 rmoveto
          -559 -59 233 -131 -99 hlineto
          -50 -26 -23 -46 -3 hvcurveto
          -109 hlineto
          80 callgsubr
          -119 221 callsubr
        </CharString>
        <CharString name="dvK_SS_M_YA">
          722 1010 -51 callgsubr
          -330 28 46 callsubr
          903 85 rmoveto
          -788 -59 215 -138 -81 hlineto
          -47 -26 -20 -42 -5 hvcurveto
          -110 hlineto
          80 callgsubr
          -149 hlineto
          -27 callsubr
        </CharString>
        <CharString name="dvK_SS_VA">
          307 251 394 46 callsubr
          488 85 rmoveto
          -346 -59 202 -392 hlineto
          -26 -8 -8 -97 callgsubr
          -43 -109 vlineto
          80 callgsubr
          -149 61 callsubr
        </CharString>
        <CharString name="dvK_SS_YA">
          402 690 -86 callsubr
          -439 -158 -80 callgsubr
          -39 230 callsubr
          132 vlineto
          123 callsubr
          583 85 rmoveto
          -442 -59 94 hlineto
          -64 callgsubr
          -189 hlineto
          5 5 3 8 13 vvcurveto
          148 -98 callsubr
          -82 -88 callgsubr
          -148 vlineto
          -14 3 -8 6 -5 vhcurveto
          -44 -6 -15 -34 -51 vvcurveto
          -125 189 callgsubr
          18 12 4 11 7 hvcurveto
          -93 69 221 -69 -45 280 callgsubr
          -76 -103 callgsubr
          107 vlineto
          37 -102 callgsubr
          291 -160 hlineto
          -92 callgsubr
        </CharString>
        <CharString name="dvK_S_DDA">
          612 733 -35 callsubr
          254 -78 -73 -88 callgsubr
          -163 -31 46 callgsubr
          384 -106 309 callgsubr
          -1064 -59 239 -392 vlineto
          -26 -8 -8 -97 callgsubr
          15 callgsubr
          86 -104 callgsubr
          132 -69 -121 -89 callgsubr
          195 274 vlineto
          -34 9 25 -16 42 hhcurveto
          114 callgsubr
          75 -69 -86 -98 callgsubr
          85 -104 callgsubr
          136 -98 callsubr
          -52 -103 callgsubr
          70 -106 callgsubr
          endchar
        </CharString>
        <CharString name="dvK_S_P_LA">
          947 1242 485 rmoveto
          88 callsubr
          395 431 vlineto
          -615 -219 rmoveto
          -79 callsubr
          111 -219 hlineto
          -172 31 46 callgsubr
          809 90 rmoveto
          -1399 -59 239 -392 hlineto
          -26 -8 -8 -97 callgsubr
          15 callgsubr
          86 -104 callgsubr
          132 -69 -121 -89 callgsubr
          195 280 189 callsubr
          -75 callgsubr
          -8 -62 callgsubr
          63 -426 69 563 68 hlineto
          endchar
        </CharString>
        <CharString name="dvK_S_P_RA">
          630 918 12 callgsubr
          -291 -219 rmoveto
          -79 callsubr
          113 -219 hlineto
          -174 31 46 callgsubr
          492 90 rmoveto
          -1082 -59 239 -392 hlineto
          -26 -8 -8 -97 callgsubr
          15 callgsubr
          86 -104 callgsubr
          132 -69 -121 -89 callgsubr
          195 282 -98 81 callsubr
        </CharString>
        <CharString name="dvK_S_TA">
          659 947 485 rmoveto
          263 callgsubr
          -62 -116 vlineto
          -79 callsubr
          316 hlineto
          -377 -188 46 callgsubr
          521 90 rmoveto
          -1111 -59 239 -392 hlineto
          -26 -8 -8 -97 callgsubr
          15 callgsubr
          86 -104 callgsubr
          132 -69 -121 -89 callgsubr
          195 281 -206 -40 callgsubr
        </CharString>
        <CharString name="dvK_S_TTA">
          600 733 -35 callsubr
          260 -78 -79 -88 callgsubr
          -163 -31 46 callgsubr
          390 -106 309 callsubr
          -1052 -59 239 -392 vlineto
          -26 -8 -8 -97 callgsubr
          15 callgsubr
          86 -104 callgsubr
          132 -69 -121 -89 callgsubr
          195 271 80 callsubr
        </CharString>
        <CharString name="dvK_TA">
          115 547 281 callgsubr
          -567 -59 259 -87 vlineto
          6 -7 -11 3 -14 hhcurveto
          -202 -59 71 hlineto
          -7 -7 -4 -11 -16 vvcurveto
          -235 -98 callgsubr
          55 59 -68 callsubr
          227 78 callgsubr
          26 8 -8 -26 hvcurveto
          -392 -101 callgsubr
        </CharString>
        <CharString name="dvK_THA">
          374 806 31 callgsubr
          -144 -451 hlineto
          -89 callsubr
          125 32 -38 callsubr
          -153 hlineto
          -59 callsubr
          220 54 59 -362 -59 239 -392 vlineto
          -26 -8 -8 -97 callgsubr
          -52 callgsubr
          63 -32 callsubr
          259 -34 callgsubr
          71 -136 hlineto
          -92 callgsubr
        </CharString>
        <CharString name="dvK_TTA">
          270 320 485 102 callsubr
          87 263 -78 vlineto
          69 -59 rmoveto
          137 82 59 -722 -59 239 -392 vlineto
          -26 -8 -8 -97 callgsubr
          -249 vlineto
          -53 26 -26 53 vhcurveto
          63 hlineto
          14 11 3 6 7 hvcurveto
          -87 69 392 vlineto
          26 8 8 26 vhcurveto
          72 hlineto
          -1 -6 0 -7 -7 vvcurveto
          1 callgsubr
          endchar
        </CharString>
        <CharString name="dvK_T_RA">
          281 570 263 rmoveto
          -8 hlineto
          -77 154 rlineto
          48 -24 -22 20 -58 hhcurveto
          -61 hlineto
          -59 callsubr
          87 282 vlineto
          312 callsubr
          -733 -59 239 -392 hlineto
          -26 -8 -8 -97 callgsubr
          -52 callgsubr
          63 -32 callsubr
          392 -34 callgsubr
          48 hlineto
          211 callgsubr
          75 hlineto
          endchar
        </CharString>
        <CharString name="dvK_T_VA">
          453 741 147 callsubr
          -381 hlineto
          -59 callsubr
          117 453 vlineto
          135 callsubr
          -905 -59 239 -392 hlineto
          -26 -8 -8 -97 callgsubr
          -52 callgsubr
          63 -32 callsubr
          362 -34 callgsubr
          72 hlineto
          -50 callgsubr
          -297 18 callgsubr
          272 vlineto
          26 5 5 26 vhcurveto
          75 hlineto
          -50 callgsubr
          -219 85 callgsubr
        </CharString>
        <CharString name="dvK_T_YA">
          603 891 -69 callsubr
          176 32 -70 callgsubr
          113 -21 callgsubr
          -571 -160 102 callsubr
          169 399 262 callgsubr
          -1055 -59 239 -392 hlineto
          -26 -8 -8 -97 callgsubr
          -52 callgsubr
          63 -32 callsubr
          310 -34 callgsubr
          97 hlineto
          -50 callgsubr
          -245 -15 callgsubr
        </CharString>
        <CharString name="dvK_VA">
          279 567 147 callsubr
          -207 hlineto
          -59 callsubr
          117 279 vlineto
          135 callsubr
          -731 -59 239 -392 hlineto
          -26 -8 -8 -97 callgsubr
          -52 callgsubr
          63 -32 callsubr
          362 -34 callgsubr
          72 hlineto
          -50 callgsubr
          -219 85 callgsubr
        </CharString>
        <CharString name="dvK_V_YA">
          548 836 -86 callsubr
          -343 -426 -60 callsubr
          227 -75 callsubr
          -207 hlineto
          -59 callsubr
          87 344 206 callsubr
          -1000 -59 239 -392 hlineto
          -26 -8 -8 -97 callgsubr
          -52 callgsubr
          63 -32 callsubr
          392 -34 callgsubr
          74 hlineto
          -2 -8 -1 -8 -9 vvcurveto
          -244 -98 callgsubr
          63 hlineto
          21 19 6 15 10 hvcurveto
          -14 13 20 254 callgsubr
        </CharString>
        <CharString name="dvK_YA">
          369 657 -86 callsubr
          -337 -189 102 callsubr
          198 165 vlineto
          -64 callgsubr
          333 248 rmoveto
          -821 -59 239 -392 hlineto
          -26 -8 -8 -97 callgsubr
          -52 callgsubr
          63 -32 callsubr
          281 -34 callgsubr
          66 -158 hlineto
          -92 callgsubr
        </CharString>
        <CharString name="dvKx">
          -60 52 -56 3 callsubr
          389 533 rmoveto
          59 -461 -59 239 -392 vlineto
          -26 -8 -8 -97 callgsubr
          -52 callgsubr
          63 -32 callsubr
          362 -34 callgsubr
          119 59 -121 209 callgsubr
        </CharString>
        <CharString name="dvKxA">
          95 52 -56 3 callsubr
          475 533 rmoveto
          59 -547 -59 239 -392 vlineto
          -26 -8 -8 -97 callgsubr
          -249 -90 callgsubr
        </CharString>
        <CharString name="dvKx_BA">
          315 98 -86 3 callsubr
          389 426 rmoveto
          76 59 -243 hlineto
          -59 callsubr
          87 315 -238 vlineto
          155 callgsubr
          -767 -59 239 -392 hlineto
          -26 -8 -8 -97 callgsubr
          -52 callgsubr
          63 -32 callsubr
          392 -34 callgsubr
          72 hlineto
          -50 callgsubr
          230 callgsubr
        </CharString>
        <CharString name="dvKx_KxA">
          428 85 -87 3 callsubr
          340 -86 3 callsubr
          127 172 rmoveto
          -82 callgsubr
          -40 -103 callgsubr
          227 -75 callsubr
          -192 hlineto
          -59 callsubr
          87 264 vlineto
          308 hmoveto
          59 -880 -59 239 -392 vlineto
          -26 -8 -8 -97 callgsubr
          -52 callgsubr
          63 -32 callsubr
          392 -34 callgsubr
          61 hlineto
          -3 -9 -2 -10 -10 vvcurveto
          -240 -90 callgsubr
        </CharString>
        <CharString name="dvKx_MA">
          465 98 -86 3 callsubr
          655 432 48 callgsubr
          -365 -77 callsubr
          -251 59 102 callsubr
          140 283 -131 vlineto
          326 190 rmoveto
          -917 -59 239 -392 hlineto
          -26 -8 -8 -97 callgsubr
          -52 callgsubr
          63 -32 callsubr
          339 -34 callgsubr
          72 58 callgsubr
        </CharString>
        <CharString name="dvKx_PHA">
          443 98 -86 3 callsubr
          469 50 callsubr
          482 108 rmoveto
          59 -895 -59 239 -392 vlineto
          -26 -8 -8 -97 callgsubr
          -52 callgsubr
          63 -32 callsubr
          362 -34 callgsubr
          71 -239 hlineto
          -100 callsubr
        </CharString>
        <CharString name="dvKx_PHxA">
          443 98 -86 3 callsubr
          351 -86 3 callsubr
          118 50 callsubr
          482 108 rmoveto
          59 -895 -59 239 -392 vlineto
          -26 -8 -8 -97 callgsubr
          -52 callgsubr
          63 -32 callsubr
          362 -34 callgsubr
          71 -239 hlineto
          -100 callsubr
        </CharString>
        <CharString name="dvKx_R">
          0 164 -128 3 callsubr
          298 605 rmoveto
          59 -482 -59 239 -362 vlineto
          -82 callgsubr
          -40 75 callgsubr
          133 callgsubr
          16 62 callgsubr
          362 -34 callgsubr
          140 59 -142 209 callgsubr
        </CharString>
        <CharString name="dvKx_RA">
          95 157 -133 3 callsubr
          370 610 rmoveto
          59 -547 -59 239 -362 vlineto
          -82 callgsubr
          -40 75 callgsubr
          133 callgsubr
          14 callgsubr
        </CharString>
        <CharString name="dvKx_TA">
          312 98 -86 3 callsubr
          499 455 rmoveto
          -277 hlineto
          -59 callsubr
          117 309 vlineto
          135 callsubr
          -761 -59 239 -392 hlineto
          -26 -8 -8 -97 callgsubr
          -52 callgsubr
          63 -32 callsubr
          362 -34 callgsubr
          72 hlineto
          -50 callgsubr
          -297 18 callgsubr
          272 218 callsubr
          -396 244 callsubr
        </CharString>
        <CharString name="dvL">
          -96 403 31 callgsubr
          -423 -59 423 hlineto
          -207 -78 rmoveto
          -72 -88 callgsubr
          -327 -62 callgsubr
          95 59 -112 268 callsubr
        </CharString>
        <CharString name="dvLA">
          76 508 31 callgsubr
          -528 -59 391 -78 -80 hlineto
          -96 callgsubr
          -206 69 206 vlineto
          26 5 5 26 vhcurveto
          63 -426 69 563 68 hlineto
          endchar
        </CharString>
        <CharString name="dvLL">
          111 563 31 callgsubr
          -603 -59 603 hlineto
          -154 -78 rmoveto
          -99 hlineto
          112 callsubr
          10 -90 rmoveto
          -227 vlineto
          -20 callgsubr
          -192 hmoveto
          -227 vlineto
          -20 callgsubr
          endchar
        </CharString>
        <CharString name="dvLLA">
          111 419 168 rmoveto
          -20 callgsubr
          -192 -227 rmoveto
          -20 callgsubr
          336 168 rmoveto
          59 -603 -59 363 -78 -13 vlineto
          112 callsubr
          -17 78 hlineto
          endchar
        </CharString>
        <CharString name="dvLL_R">
          111 296 395 rmoveto
          26 5 5 26 vhcurveto
          61 -66 callgsubr
          -61 -103 callgsubr
          -69 hmoveto
          -20 callgsubr
          261 11 249 callsubr
          -99 hlineto
          4 callgsubr
          2 -22 14 -14 26 -1 -74 -140 rcurveline
          273 callgsubr
          39 6 19 25 46 vvcurveto
          -528 465 rmoveto
          -59 603 59 vlineto
          endchar
        </CharString>
        <CharString name="dvLL_RA">
          111 419 168 rmoveto
          -20 callgsubr
          -192 -227 rmoveto
          -20 callgsubr
          336 168 rmoveto
          59 -603 -59 363 -78 -13 vlineto
          4 callgsubr
          2 -22 14 -14 26 -1 -74 -140 rcurveline
          273 callgsubr
          39 6 19 25 46 vvcurveto
          265 callsubr
          -17 78 hlineto
          endchar
        </CharString>
        <CharString name="dvLL_YA">
          539 419 168 rmoveto
          -20 callgsubr
          -192 -227 rmoveto
          -20 callgsubr
          83 90 rmoveto
          112 callsubr
          418 -314 6 callgsubr
          -1011 -59 663 157 callsubr
          158 -87 callgsubr
          vlineto
          endchar
        </CharString>
        <CharString name="dvL_BA">
          291 469 137 199 callsubr
          -743 -59 599 172 callsubr
          -248 hlineto
          -96 callgsubr
          -206 69 206 vlineto
          26 5 5 26 vhcurveto
          62 hlineto
          -50 callgsubr
          230 callgsubr
        </CharString>
        <CharString name="dvL_BHA">
          443 329 31 callgsubr
          -349 -59 349 hlineto
          220 67 callsubr
          326 280 165 callsubr
          -258 vlineto
          -65 callsubr
          132 callsubr
          82 62 -61 -103 callgsubr
          218 90 callsubr
          -152 69 152 -106 callgsubr
          64 hlineto
          -50 callgsubr
          -165 -78 callgsubr
          185 113 -342 69 -29 callsubr
        </CharString>
        <CharString name="dvL_DA">
          249 606 143 callsubr
          75 59 -701 -59 557 -78 -246 vlineto
          -96 callgsubr
          -206 69 206 vlineto
          26 5 5 26 vhcurveto
          62 hlineto
          -50 callgsubr
          -249 -21 callsubr
        </CharString>
        <CharString name="dvL_DDA">
          248 590 278 callsubr
          -700 -59 541 -78 -230 vlineto
          -96 callgsubr
          -206 69 206 vlineto
          26 5 5 26 vhcurveto
          62 hlineto
          -50 callgsubr
          13 callsubr
        </CharString>
        <CharString name="dvL_DDHA">
          281 598 143 callsubr
          115 59 -733 -59 549 -78 -238 vlineto
          -96 callgsubr
          -206 69 206 vlineto
          26 5 5 26 vhcurveto
          64 hlineto
          -50 callgsubr
          -25 callgsubr
          endchar
        </CharString>
        <CharString name="dvL_D_RA">
          249 606 143 callsubr
          75 59 -701 -59 557 -78 -246 vlineto
          -96 callgsubr
          -206 69 206 vlineto
          26 5 5 26 vhcurveto
          62 hlineto
          -50 callgsubr
          52 callgsubr
        </CharString>
        <CharString name="dvL_GA">
          434 469 186 rmoveto
          112 callgsubr
          -106 callgsubr
          80 -209 hlineto
          -105 callgsubr
          348 436 rmoveto
          -886 -59 569 -78 -258 hlineto
          -96 callgsubr
          -207 69 207 -106 callgsubr
          62 hlineto
          -50 callgsubr
          -200 -44 callsubr
          357 243 callsubr
        </CharString>
        <CharString name="dvL_HA">
          265 622 307 callsubr
          -727 -59 573 -78 -262 vlineto
          -96 callgsubr
          -206 69 206 vlineto
          26 5 5 26 vhcurveto
          62 hlineto
          -50 callgsubr
          -74 -25 callsubr
        </CharString>
        <CharString name="dvL_JA">
          402 834 31 callgsubr
          -854 -59 710 69 callsubr
          -147 vlineto
          -96 callgsubr
          -206 69 206 vlineto
          26 5 5 26 vhcurveto
          61 213 callsubr
        </CharString>
        <CharString name="dvL_JxA">
          404 447 -86 3 callsubr
          389 31 callgsubr
          -856 -59 712 69 callsubr
          -149 vlineto
          -96 callgsubr
          -206 69 206 vlineto
          26 5 5 26 vhcurveto
          63 213 callsubr
        </CharString>
        <CharString name="dvL_KA">
          421 853 281 callgsubr
          -873 -59 565 96 callgsubr
          -214 hlineto
          -96 callgsubr
          -206 69 206 vlineto
          26 5 5 26 vhcurveto
          64 hlineto
          -1 -6 0 -7 -7 vvcurveto
          -249 -90 callgsubr
        </CharString>
        <CharString name="dvL_KHA">
          495 927 31 callgsubr
          -947 -59 495 -32 callgsubr
          180 -149 hlineto
          -96 callgsubr
          -206 69 206 vlineto
          26 5 5 26 vhcurveto
          63 -347 -14 callgsubr
        </CharString>
        <CharString name="dvL_K_YA">
          695 983 -86 callsubr
          -337 -189 102 callsubr
          198 165 vlineto
          -64 callgsubr
          333 248 rmoveto
          -1147 -59 565 -5 callsubr
          -214 hlineto
          -96 callgsubr
          -206 69 206 vlineto
          26 5 5 26 vhcurveto
          64 hlineto
          72 callgsubr
          281 -34 callgsubr
          66 -158 hlineto
          -92 callgsubr
        </CharString>
        <CharString name="dvL_LA">
          400 832 31 callgsubr
          -852 -59 715 268 callgsubr
          -229 hlineto
          -96 callgsubr
          -206 69 206 vlineto
          26 5 5 26 vhcurveto
          62 hlineto
          -50 callgsubr
          -327 -62 callgsubr
          63 -426 69 563 68 hlineto
          endchar
        </CharString>
        <CharString name="dvL_L_YA">
          678 966 -69 callsubr
          196 32 -70 callgsubr
          93 -21 callgsubr
          135 callsubr
          -1130 -59 782 hlineto
          -26 callsubr
          -77 232 callgsubr
          -231 hlineto
          -65 callsubr
          74 callsubr
          64 hlineto
          -50 callgsubr
          74 callsubr
          63 -207 hlineto
          -92 callgsubr
        </CharString>
        <CharString name="dvL_MA">
          443 731 432 48 callgsubr
          -365 -77 callsubr
          326 249 rmoveto
          -895 -59 569 -131 229 callsubr
          -274 140 callgsubr
          62 -61 -103 callgsubr
          249 90 callsubr
          -183 69 183 -106 callgsubr
          64 58 callgsubr
        </CharString>
        <CharString name="dvL_PA">
          255 543 -46 callgsubr
          135 callsubr
          -707 -59 389 -78 -78 hlineto
          -96 callgsubr
          -206 69 206 vlineto
          26 5 5 26 vhcurveto
          61 -269 61 callsubr
        </CharString>
        <CharString name="dvL_PHA">
          419 543 -46 callgsubr
          308 hmoveto
          59 -871 -59 389 -78 -78 vlineto
          -96 callgsubr
          -206 69 206 vlineto
          26 5 5 26 vhcurveto
          61 -269 hlineto
          -100 callsubr
        </CharString>
        <CharString name="dvL_R">
          -50 468 317 rmoveto
          -329 -367 rlineto
          85 hlineto
          244 279 rlineto
          -86 393 rmoveto
          -402 -59 402 hlineto
          -186 -78 rmoveto
          -72 -88 callgsubr
          -61 callsubr
          32 62 -11 -62 callsubr
          190 59 -207 268 callsubr
        </CharString>
        <CharString name="dvL_RA">
          76 508 31 callgsubr
          -528 -59 391 -78 -80 hlineto
          -73 callsubr
          32 62 -11 -62 callsubr
          63 -217 hlineto
          -232 -259 rlineto
          85 hlineto
          147 167 rlineto
          -117 69 563 68 vlineto
          endchar
        </CharString>
        <CharString name="dvL_SA">
          422 711 344 251 callsubr
          312 callsubr
          -874 -59 537 hlineto
          -71 callgsubr
          141 -149 hlineto
          -96 callgsubr
          -206 69 206 vlineto
          26 5 5 26 vhcurveto
          63 -347 hlineto
          26 callgsubr
        </CharString>
        <CharString name="dvL_TA">
          287 719 31 callgsubr
          -739 -59 595 -78 -284 hlineto
          -96 callgsubr
          -206 69 206 vlineto
          26 5 5 26 vhcurveto
          64 hlineto
          -50 callgsubr
          59 callgsubr
        </CharString>
        <CharString name="dvL_THA">
          343 332 31 callgsubr
          -352 -59 352 hlineto
          443 59 rmoveto
          -144 -451 12 callsubr
          149 -91 callgsubr
        </CharString>
        <CharString name="dvL_TH_YA">
          612 332 31 callgsubr
          -352 -59 352 hlineto
          568 -392 6 callgsubr
          -413 -59 65 -41 callsubr
          -203 12 callsubr
          163 0 callgsubr
          -93 callsubr
        </CharString>
        <CharString name="dvL_TTA">
          238 598 426 309 callsubr
          -690 -59 549 -78 -238 vlineto
          -96 callgsubr
          -206 69 206 vlineto
          26 5 5 26 vhcurveto
          64 hlineto
          -50 callgsubr
          1 callgsubr
          endchar
        </CharString>
        <CharString name="dvL_TTHA">
          272 567 90 19 callsubr
          -724 -59 489 -78 -178 vlineto
          -96 callgsubr
          -206 69 206 vlineto
          26 5 5 26 vhcurveto
          64 hlineto
          -50 callgsubr
          -61 callsubr
          107 -104 callgsubr
          142 callgsubr
        </CharString>
        <CharString name="dvL_VA">
          257 689 31 callgsubr
          -709 -59 565 -5 callsubr
          -214 hlineto
          -96 callgsubr
          -206 69 206 vlineto
          26 5 5 26 vhcurveto
          64 hlineto
          125 callsubr
        </CharString>
        <CharString name="dvL_V_DDA">
          436 778 278 callsubr
          -888 -59 729 -78 -73 vlineto
          60 callgsubr
          85 -69 -4 vlineto
          -82 callgsubr
          -40 -103 callgsubr
          227 -75 callsubr
          -214 hlineto
          -96 callgsubr
          -206 69 206 vlineto
          26 5 5 26 vhcurveto
          64 hlineto
          10 callsubr
          -8 -98 callgsubr
          85 -104 callgsubr
          136 -98 callsubr
          -52 -103 callgsubr
          70 -106 callgsubr
          endchar
        </CharString>
        <CharString name="dvL_YA">
          387 640 -69 callsubr
          196 32 -70 callgsubr
          93 -21 callgsubr
          135 callsubr
          -804 -59 456 hlineto
          -26 callsubr
          -77 232 callgsubr
          -72 hlineto
          -53 -26 -26 -53 hvcurveto
          74 callsubr
          63 -207 hlineto
          -92 callgsubr
        </CharString>
        <CharString name="dvM">
          -72 213 198 -77 callsubr
          212 190 rmoveto
          59 -445 -59 233 -131 238 callsubr
          -166 vlineto
          284 callsubr
          143 59 -143 131 vlineto
          endchar
        </CharString>
        <CharString name="dvMA">
          107 395 432 48 callgsubr
          -365 -77 callsubr
          326 249 rmoveto
          -559 -59 233 154 callgsubr
          84 callsubr
        </CharString>
        <CharString name="dvM_BA">
          309 481 426 rmoveto
          76 59 -91 159 callsubr
          315 177 callgsubr
          -70 -149 -77 callgsubr
          -350 61 -77 callsubr
          528 249 rmoveto
          -761 -59 233 154 callgsubr
          -166 vlineto
          284 callsubr
          105 -216 166 callsubr
        </CharString>
        <CharString name="dvM_BHA">
          459 565 168 rmoveto
          -26 -5 -5 -26 vhcurveto
          -47 hlineto
          -26 -5 5 26 hvcurveto
          143 27 callgsubr
          -165 -78 callgsubr
          185 113 -342 69 -29 callsubr
        </CharString>
        <CharString name="dvM_BH_RA">
          459 565 218 rmoveto
          -26 -5 -5 -26 vhcurveto
          -47 hlineto
          -26 -5 5 26 hvcurveto
          93 27 callgsubr
          -115 vlineto
          -53 26 -26 53 vhcurveto
          183 callsubr
        </CharString>
        <CharString name="dvM_BH_VA">
          625 565 96 callsubr
          -352 -174 -47 callgsubr
          844 280 rmoveto
          -375 -59 231 -392 hlineto
          -26 -8 -8 -97 callgsubr
          -5 -105 142 vlineto
          51 callsubr
          63 -87 callgsubr
          vlineto
          endchar
        </CharString>
        <CharString name="dvM_BH_YA">
          720 1008 174 callgsubr
          -443 67 callsubr
          -352 -174 -47 callgsubr
          939 280 rmoveto
          -470 -59 122 hlineto
          -26 callsubr
          -99 -99 callgsubr
          -185 142 hlineto
          51 callsubr
          158 -87 callgsubr
          vlineto
          endchar
        </CharString>
        <CharString name="dvM_B_RA">
          309 481 426 rmoveto
          76 59 -91 159 callsubr
          315 282 callsubr
          -70 -135 223 callgsubr
          -350 31 -77 callsubr
          528 249 rmoveto
          -761 -59 233 154 callgsubr
          -166 vlineto
          284 callsubr
          105 -186 vlineto
          -53 26 -26 53 vhcurveto
          52 -45 callsubr
        </CharString>
        <CharString name="dvM_B_YA">
          578 866 -86 callsubr
          -379 -426 -77 callgsubr
          -281 426 rmoveto
          380 173 callsubr
          -43 -26 -17 -36 -7 hvcurveto
          -108 hlineto
          -69 -234 -77 callsubr
          797 249 rmoveto
          -1030 -59 233 154 callgsubr
          -166 vlineto
          284 callsubr
          105 -216 172 callgsubr
        </CharString>
        <CharString name="dvM_DA">
          267 282 432 rmoveto
          131 273 -78 -89 vlineto
          -43 -26 -17 -36 -7 hvcurveto
          -177 -234 -77 callsubr
          411 53 rmoveto
          137 75 59 -719 -59 233 -131 238 callsubr
          -166 vlineto
          284 callsubr
          105 -216 -21 callsubr
        </CharString>
        <CharString name="dvM_HA">
          283 282 432 rmoveto
          131 289 -78 -105 vlineto
          -43 -26 -17 -36 -7 hvcurveto
          -177 -234 -77 callsubr
          427 53 rmoveto
          137 85 59 -745 -59 233 -131 238 callsubr
          -166 vlineto
          284 callsubr
          105 -41 -25 callsubr
        </CharString>
        <CharString name="dvM_LA">
          418 713 485 rmoveto
          145 callgsubr
          -43 -26 -17 -36 -7 hvcurveto
          -108 131 431 hlineto
          -500 -365 -77 callsubr
          637 249 rmoveto
          -870 -59 233 154 callgsubr
          -166 vlineto
          284 callsubr
          105 -294 -62 callgsubr
          63 -426 69 563 68 hlineto
          endchar
        </CharString>
        <CharString name="dvM_MA">
          459 747 432 48 callgsubr
          -365 -77 callsubr
          -283 190 rmoveto
          283 -131 -283 hlineto
          -69 -234 -77 callsubr
          678 249 rmoveto
          -911 -59 233 154 callgsubr
          -166 vlineto
          284 callsubr
          237 callgsubr
          84 callsubr
        </CharString>
        <CharString name="dvM_NA">
          416 704 485 rmoveto
          -238 159 callsubr
          422 hlineto
          -157 -395 -92 callsubr
          -334 -228 -77 callsubr
          635 249 rmoveto
          -868 -59 233 154 callgsubr
          -166 vlineto
          284 callsubr
          105 -216 37 callsubr
        </CharString>
        <CharString name="dvM_PA">
          273 561 -46 callgsubr
          -279 -131 rmoveto
          131 105 -131 vlineto
          -174 -234 -77 callsubr
          492 249 rmoveto
          -725 -59 233 154 callgsubr
          -166 vlineto
          284 callsubr
          105 -216 85 callgsubr
        </CharString>
        <CharString name="dvM_P_RA">
          273 561 12 callgsubr
          -279 -131 rmoveto
          131 105 -131 vlineto
          -174 -234 -77 callsubr
          492 249 rmoveto
          -725 -59 233 154 callgsubr
          -166 vlineto
          284 callsubr
          105 -186 81 callsubr
        </CharString>
        <CharString name="dvM_R">
          -16 218 -50 rmoveto
          197 219 rlineto
          92 vlineto
          -282 -311 rlineto
          80 268 -82 callsubr
          124 -106 callgsubr
          78 hlineto
          69 59 rmoveto
          131 133 59 -435 -59 233 -131 238 callsubr
          -146 -78 callgsubr
          166 134 59 vlineto
          endchar
        </CharString>
        <CharString name="dvM_RA">
          107 395 432 48 callgsubr
          -345 -82 callsubr
          124 -106 callgsubr
          78 hlineto
          326 249 rmoveto
          -559 -59 233 154 callgsubr
          -146 -78 callgsubr
          166 113 -134 13 callgsubr
        </CharString>
        <CharString name="dvM_SA">
          438 727 344 251 callsubr
          -163 -188 218 callgsubr
          -174 108 251 -95 callsubr
          -351 -334 -82 callsubr
          167 -106 callgsubr
          78 hlineto
          657 226 rmoveto
          -890 -59 233 -108 161 callsubr
          -189 -78 callgsubr
          209 105 -317 -22 callgsubr
        </CharString>
        <CharString name="dvM_SHA">
          426 213 198 rmoveto
          -26 -5 -5 -26 vhcurveto
          -47 98 callgsubr
          78 hlineto
          255 264 rmoveto
          -104 callsubr
          -45 69 34 -57 callgsubr
          91 -174 145 64 59 -366 -59 233 -145 161 callsubr
          -152 -78 callgsubr
          172 105 -280 -31 callsubr
        </CharString>
        <CharString name="dvM_TA">
          303 591 485 rmoveto
          -125 159 callsubr
          309 hlineto
          -378 -365 -77 callsubr
          522 249 rmoveto
          -755 -59 233 154 callgsubr
          -166 vlineto
          284 callsubr
          105 -294 -40 callgsubr
        </CharString>
        <CharString name="dvM_VA">
          273 561 215 callgsubr
          227 -75 callsubr
          -55 159 callsubr
          279 hlineto
          -348 -365 -77 callsubr
          492 249 rmoveto
          -725 -59 233 154 callgsubr
          -166 vlineto
          284 callsubr
          105 -216 85 callgsubr
        </CharString>
        <CharString name="dvM_YA">
          336 624 -51 callgsubr
          573 256 rmoveto
          -788 -59 215 276 callsubr
          -189 vlineto
          -27 callsubr
        </CharString>
        <CharString name="dvN">
          -115 195 426 rmoveto
          -258 158 callgsubr
          227 -106 callgsubr
          -100 -269 290 callsubr
          269 119 59 -269 303 callsubr
          403 59 vlineto
          endchar
        </CharString>
        <CharString name="dvNA">
          64 195 -9 callsubr
          -516 -59 372 -78 -238 hlineto
          191 callgsubr
        </CharString>
        <CharString name="dvNG">
          -61 131 -61 68 callgsubr
          66 369 3 callsubr
          -293 228 rmoveto
          -59 232 -78 -73 vlineto
          -53 -26 -26 -53 hvcurveto
          -78 callsubr
          121 137 90 59 hlineto
          endchar
        </CharString>
        <CharString name="dvNGA">
          -61 273 308 3 callsubr
          -293 228 rmoveto
          -59 232 -78 -73 vlineto
          -53 -26 -26 -53 hvcurveto
          -78 callsubr
          121 137 90 59 hlineto
          endchar
        </CharString>
        <CharString name="dvNG_R">
          -61 133 -152 68 callgsubr
          64 460 3 callsubr
          -293 228 rmoveto
          -59 232 -78 -73 vlineto
          41 callsubr
          -47 21 -26 42 -5 vhcurveto
          -75 -141 rlineto
          273 callgsubr
          38 6 19 26 105 callsubr
          121 137 90 59 hlineto
          endchar
        </CharString>
        <CharString name="dvNG_RA">
          -61 273 308 3 callsubr
          -293 228 rmoveto
          -59 232 -78 -73 vlineto
          41 callsubr
          -47 21 -26 42 -5 vhcurveto
          -75 -141 rlineto
          273 callgsubr
          38 6 19 26 105 callsubr
          121 137 90 59 hlineto
          endchar
        </CharString>
        <CharString name="dvNN">
          -101 210 168 -23 callsubr
          134 59 rmoveto
          -364 77 callgsubr
          65 vlineto
          endchar
        </CharString>
        <CharString name="dvNNA">
          78 210 168 -23 callsubr
          300 59 rmoveto
          -530 77 callgsubr
          87 287 callgsubr
        </CharString>
        <CharString name="dvNN_DDA">
          254 210 168 -23 callsubr
          386 -137 309 callgsubr
          -706 -59 65 -406 -58 callgsubr
          406 248 -78 -73 vlineto
          -53 -26 -26 -53 hvcurveto
          13 callsubr
        </CharString>
</ttFont>
